<svg xmlns="http://www.w3.org/2000/svg" viewBox="0 0 32 32">
  <path d="M27.62,22.42a1,1,0,0,1-.37,1.36l-10.5,6.07a1.53,1.53,0,0,1-.75.2,1.44,1.44,0,0,1-.75-.21L4.75,23.78A1.51,1.51,0,0,1,4,22.48V18.3a2,2,0,1,1,2,0v3.9L16,28l10.25-5.92A1,1,0,0,1,27.62,22.42Zm-17-2.29A1.23,1.23,0,0,1,10,19.07V13.56a1.24,1.24,0,0,1,.62-1.07l4.77-2.75a1.23,1.23,0,0,1,1.22,0l4.78,2.76A1.23,1.23,0,0,1,22,13.56v5.51a1.24,1.24,0,0,1-.62,1.07l-4.77,2.75a1.18,1.18,0,0,1-.61.16,1.25,1.25,0,0,1-.62-.16ZM12,18.62l4,2.31,4-2.31V14L16,11.7,12,14Zm16-3.77V10.36a1.52,1.52,0,0,0-.75-1.3L16.75,3a1.49,1.49,0,0,0-1.5,0L4.75,9.06a1,1,0,0,0-.37,1.37,1,1,0,0,0,1.37.36L16,4.88l10,5.77v4.2a2,2,0,1,0,2,0Z"/>
</svg>
