<svg xmlns="http://www.w3.org/2000/svg" viewBox="0 0 32 32">
  <path d="M26.65 5a.35.35 0 0 1 .35.35v1.5a.35.35 0 0 1-.35.35H19.9v7.7h6.75a.35.35 0 0 1 .35.35v1.5a.35.35 0 0 1-.35.35H19.9v7.7h6.75a.35.35 0 0 1 .35.35v1.5a.35.35 0 0 1-.35.35h-8.52a.36.36 0 0 1-.36-.35V17.1h-3.55v9.55A.35.35 0 0 1 14 27H5.35a.35.35 0 0 1-.35-.35v-1.5a.35.35 0 0 1 .35-.35h6.75v-7.7H5.35a.35.35 0 0 1-.35-.35v-1.5a.35.35 0 0 1 .35-.35h6.75V7.2H5.35A.35.35 0 0 1 5 6.85v-1.5A.35.35 0 0 1 5.35 5h8.52a.36.36 0 0 1 .36.35v9.55h3.55V5.35a.36.36 0 0 1 .35-.35Z"/>
</svg>
