<svg xmlns="http://www.w3.org/2000/svg" viewBox="0 0 32 32">
  <g fill="#358CEB" fill-rule="evenodd">
    <path
      d="M11.5 5h9c.28 0 .5.22.5.5v6a.5.5 0 0 1-.5.5h-9a.5.5 0 0 1-.5-.5v-6c0-.28.22-.5.5-.5Zm14 10c.28 0 .5.22.5.5V20h2c.28 0 .5.22.5.5v6a.5.5 0 0 1-.5.5h-6a.5.5 0 0 1-.5-.5v-6c0-.28.22-.5.5-.5h2.1v-3H7.9v3H10c.28 0 .5.22.5.5v6a.5.5 0 0 1-.5.5H4a.5.5 0 0 1-.5-.5v-6c0-.28.22-.5.5-.5h2v-4.5c0-.28.22-.5.5-.5h19ZM19 20c.28 0 .5.22.5.5v6a.5.5 0 0 1-.5.5h-6a.5.5 0 0 1-.5-.5v-6c0-.28.22-.5.5-.5h6Z"/>
    <path fill-rule="nonzero" d="M15 12v5h2v-5z"/>
  </g>
</svg>
