<svg viewBox="0 0 20 20" xmlns="http://www.w3.org/2000/svg">
  <path d="M14.6215213,10.1912954 L14.0704254,9.64001629 C14.0027338,9.57251272 13.8934147,9.57251272 13.8260981,9.64001629 L9.64009448,13.8259873 C9.57240288,13.8934909 9.57240288,14.0028092 9.64009448,14.0703127 L10.1911904,14.6215919 C10.2586945,14.6889079 10.3680136,14.6889079 10.4355177,14.6215919 L14.6215213,10.4356208 C14.6890254,10.3679297 14.6890254,10.2586115 14.6215213,10.1912954 L14.6215213,10.1912954 Z M7.75598032,6.46378606 C7.41977245,6.46378606 7.08375209,6.59185532 6.82779908,6.84761883 C6.31589307,7.35933335 6.31589307,8.19225233 6.82779908,8.70396686 C7.33951759,9.21549387 8.17188052,9.21586889 8.68397405,8.70396686 C8.93186407,8.45607877 9.06837234,8.12643636 9.06837234,7.77579284 C9.06837234,7.42514932 8.93186407,7.09550692 8.68397405,6.84761883 C8.42802104,6.59185532 8.09200068,6.46378606 7.75598032,6.46378606 L7.75598032,6.46378606 Z M7.75598032,10.2122965 C7.131755,10.2122965 6.50752968,9.97472146 6.03218838,9.49957137 C5.08169329,8.54908368 5.08169329,7.002502 6.03218838,6.05220182 C6.98268347,5.10190164 8.52908967,5.10152662 9.47939725,6.05220182 C9.93992515,6.51253863 10.1934405,7.12475846 10.1934405,7.77579284 C10.1934405,8.42701473 9.93992515,9.03904705 9.47939725,9.49957137 C9.00424346,9.97472146 8.38001813,10.2122965 7.75598032,10.2122965 L7.75598032,10.2122965 Z M3.14957622,9.44238085 L10.4141414,16.707077 L16.7070227,10.4140572 L9.44264502,3.14973605 L3.92981099,3.92996475 L3.14957622,9.44238085 Z M10.4141414,17.9999578 C10.2298177,17.9999578 10.0456816,17.9298291 9.90561057,17.7893841 L2.21070683,10.0945403 C2.04738443,9.9319692 1.97237989,9.69983195 2.00913212,9.47144488 L2.86362139,3.43887632 C2.91799968,3.14804846 3.14957622,2.91703626 3.44021883,2.86359594 L3.46309521,2.85965823 L9.47133426,2.00930082 C9.69859803,1.97217386 9.93111212,2.04699031 10.094622,2.21068646 L17.7897133,9.90571782 C18.0700428,10.1860451 18.0700428,10.6420692 17.7897133,10.9223965 L10.9224847,17.7893841 C10.7824137,17.9298291 10.5982775,17.9999578 10.4141414,17.9999578 L10.4141414,17.9999578 Z" />
</svg>
