<svg viewBox="0 0 20 20" xmlns="http://www.w3.org/2000/svg" fill="#086DF4">
  <path d="m12.391 15.861.088.84.845-.007 2.804-3.144-.933-.832-2.804 3.143Zm-1.036 2.101-.265-2.52 4.004-4.489 2.799 2.496-4.004 4.49-2.534.023Zm-4.8-10.98A3.235 3.235 0 0 1 9.787 3.75a3.235 3.235 0 0 1 3.232 3.231 3.235 3.235 0 0 1-3.232 3.232 3.235 3.235 0 0 1-3.232-3.232Zm3.232 4.481a4.487 4.487 0 0 0 4.482-4.482A4.486 4.486 0 0 0 9.787 2.5a4.486 4.486 0 0 0-4.482 4.481 4.48 4.48 0 0 0 1.95 3.695C4.484 11.708 2.5 14.373 2.5 17.5v.625h7.287a.214.214 0 0 0 .213-.214v-.823a.213.213 0 0 0-.213-.213H3.782a6.046 6.046 0 0 1 6.005-5.412Z"/>
</svg>
