<svg viewBox="0 0 20 20" xmlns="http://www.w3.org/2000/svg">
  <path
      d="M10.412 1.875c2.47 0 4.481 2.01 4.481 4.482a4.487 4.487 0 0 1-4.481 4.482 6.046 6.046 0 0 0-6.005 5.411h6.005c.117 0 .213.096.213.213v.824a.214.214 0 0 1-.213.213H3.125v-.625c0-3.127 1.983-5.792 4.754-6.824a4.478 4.478 0 0 1-1.95-3.694 4.487 4.487 0 0 1 4.483-4.482Zm4.296 9.063c.173 0 .313.14.313.312v1.875h1.875c.172 0 .312.14.312.313v.625c0 .172-.14.312-.312.312H15.02v1.875c0 .173-.14.313-.313.313h-.625a.313.313 0 0 1-.312-.313v-1.875h-1.875a.313.313 0 0 1-.313-.312v-.625c0-.173.14-.313.313-.313h1.875V11.25c0-.172.14-.312.312-.312Zm-4.296-7.813a3.236 3.236 0 0 0-3.233 3.232 3.236 3.236 0 0 0 3.233 3.232 3.235 3.235 0 0 0 3.231-3.232 3.235 3.235 0 0 0-3.231-3.232Z"
      fill="#086DF4"/>
</svg>
