<svg xmlns="http://www.w3.org/2000/svg" xmlns:xlink="http://www.w3.org/1999/xlink" viewBox="0 0 48 48">
  <defs>
    <linearGradient id="b" x1="50%" x2="50%" y1="0%" y2="100%">
      <stop offset="0%" stop-color="#439EFF"/>
      <stop offset="100%" stop-color="#CAE4FF"/>
    </linearGradient>
    <linearGradient id="f" x1="50%" x2="50%" y1="0%" y2="126.2%">
      <stop offset="0%" stop-color="#FFF"/>
      <stop offset="81.04%" stop-color="#E8F3FF" stop-opacity=".84"/>
      <stop offset="100%" stop-color="#C2E0FF" stop-opacity=".56"/>
    </linearGradient>
    <linearGradient id="g" x1="50%" x2="50%" y1="0%" y2="100%">
      <stop offset="0%" stop-color="#429BFB"/>
      <stop offset="100%" stop-color="#137DF0"/>
    </linearGradient>
    <filter id="d" width="150%" height="142.4%" x="-25%" y="-15.2%" filterUnits="objectBoundingBox">
      <feOffset dy="2" in="SourceAlpha" result="shadowOffsetOuter1"/>
      <feGaussianBlur in="shadowOffsetOuter1" result="shadowBlurOuter1" stdDeviation="2"/>
      <feColorMatrix in="shadowBlurOuter1" values="0 0 0 0 0.227892765 0 0 0 0 0.535069695 0 0 0 0 0.859799592 0 0 0 0.317854021 0"/>
    </filter>
    <circle id="a" cx="24" cy="24" r="21"/>
    <path id="e" d="M38 18v25.06c0 1.07-.58 1.94-1.3 1.94H11.3c-.72 0-1.3-.87-1.3-1.94V18h28Zm-28-4.06c0-1.07.58-1.94 1.3-1.94h25.4c.72 0 1.3.87 1.3 1.94V17H10v-3.06Z"/>
  </defs>
  <g fill="none" fill-rule="evenodd">
    <mask id="c" fill="#fff">
      <use xlink:href="#a"/>
    </mask>
    <use xlink:href="#a" fill="url(#b)"/>
    <g mask="url(#c)">
      <use xlink:href="#e" fill="#000" filter="url(#d)"/>
      <use xlink:href="#e" fill="url(#f)"/>
    </g>
    <g mask="url(#c)">
      <path fill="#8BC4FF" d="M13 20h6v5h-6zM21 20h6v5h-6zM29 20h6v5h-6zM13 27h6v5h-6zM21 27h6v5h-6zM29 27h6v5h-6zM13 34h6v5h-6z"/>
      <path fill="#99CBFF" d="M21 34h6v5h-6zM29 34h6v5h-6z"/>
    </g>
    <path fill="url(#g)" stroke="#EFF5FC" d="M26.5 29.5v10h-5v-10h5Zm6-4v14h-5v-14h5Zm6 6v8h-5v-8h5Z" mask="url(#c)"/>
  </g>
</svg>
