<svg xmlns="http://www.w3.org/2000/svg" viewBox="0 0 32 32">
    <path d="M26.5,11.8V26.39a1.43,1.43,0,0,1-1.45,1.41H7A1.43,1.43,0,0,1,5.5,26.39V5.2A1.43,1.43,0,0,1,7,3.8H19"
          fill="#9184de"/>
    <polygon points="19 11.8 26.5 11.8 19 3.8 19 11.8" fill="#7363d6"/>
    <path d="M12,15.55v7.76a2.66,2.66,0,0,0-1-.19c-1.1,0-2,.6-2,1.34s.9,1.34,2,1.34,2-.6,2-1.34V18.92l7-1.36v4a2.66,2.66,0,0,0-1-.19c-1.1,0-2,.6-2,1.34S17.9,24,19,24s2-.59,2-1.33V13.8Zm8,1.12L13,18v-.9l7-1.36Z"
          fill="#fff"/>
</svg>
