<svg viewBox="0 0 14 14" xmlns="http://www.w3.org/2000/svg">
  <path d="M12.6.88c.77 0 1.4.6 1.4 1.35v8.66c0 .75-.63 1.35-1.4 1.35H8.25a.1.1 0 0 0-.09.04l-.28.4c-.2.28-.52.45-.87.45s-.67-.17-.87-.44l-.28-.4a.1.1 0 0 0-.09-.05l-4.36.03c-.78 0-1.41-.6-1.41-1.35V2.25C0 1.5.63.9 1.4.9L4.9.88A2.64 2.64 0 0 1 7.02 1.9l.29-.32c.49-.45 1.13-.7 1.81-.7h3.49Zm-.34 1.3H9.13c-.9 0-1.51.67-1.51 1.49L7.6 9.64c0 .26-.32.47-.59.47-.26 0-.6-.21-.6-.47l.01-5.97c0-.4-.16-.77-.46-1.05a1.4 1.4 0 0 0-1.04-.44H1.81c-.25 0-.45.17-.45.39v7.96c0 .21.2.39.45.39h3.97c.35 0 .68.16.87.44l.29.4c.02.03.07.04.09.04.01 0 .06 0 .08-.04l.29-.4c.2-.28.52-.44.87-.44h3.99c.25 0 .45-.18.45-.4V2.58c0-.22-.2-.4-.45-.4ZM4.08 6.52c.26 0 .48.3.48.65 0 .37-.22.66-.48.66H2.7c-.27 0-.48-.3-.48-.66 0-.36.21-.65.48-.65h1.38Zm7.24 0c.27 0 .48.3.48.65 0 .37-.21.66-.48.66H9.94c-.26 0-.48-.3-.48-.66 0-.36.22-.65.48-.65h1.38ZM4.96 3.56c.26 0 .47.3.47.66 0 .36-.2.65-.47.65H2.7c-.27 0-.48-.29-.48-.65 0-.37.21-.66.48-.66h2.26Zm6.36 0c.27 0 .48.3.48.66 0 .36-.21.65-.48.65H9.06c-.26 0-.47-.29-.47-.65 0-.37.21-.66.47-.66h2.26Z"/>
</svg>
