<svg viewBox="0 0 32 32" xmlns="http://www.w3.org/2000/svg">
  <path d="M12 6.018c1.636 0 3.088.785 4 2a4.99 4.99 0 0 1 4-2h7.5a.5.5 0 0 1 .5.5v18.897a.5.5 0 0 1-.5.5h-7.13a3 3 0 0 0-1.833.625L16.62 28.02l-.054.04-.042.026.087-.06-.094.064-.083.046a.993.993 0 0 1-.377.097l-.106.001a1.124 1.124 0 0 1-.242-.042 1.258 1.258 0 0 1-.05-.017l-.093-.039-.084-.046-.093-.063c.028.022.057.041.086.06l.016.01a.992.992 0 0 1-.111-.077l-1.917-1.479a3 3 0 0 0-1.832-.625H4.5a.5.5 0 0 1-.5-.5V6.518a.5.5 0 0 1 .5-.5H12Zm14 2h-6a3 3 0 0 0-3 3v14.18l.315-.241a5 5 0 0 1 2.8-1.035l.254-.007H26V8.018Zm-14 0H6v15.897h5.63l.255.007a5 5 0 0 1 2.8 1.035l.315.242V11.018l-.005-.177A3 3 0 0 0 12 8.018ZM23.5 18a.5.5 0 0 1 .5.5v1a.5.5 0 0 1-.5.5h-4a.5.5 0 0 1-.5-.5v-1a.5.5 0 0 1 .5-.5h4Zm-11 0a.5.5 0 0 1 .5.5v1a.5.5 0 0 1-.5.5h-4a.5.5 0 0 1-.5-.5v-1a.5.5 0 0 1 .5-.5h4Zm11-5a.5.5 0 0 1 .5.5v1a.5.5 0 0 1-.5.5h-4a.5.5 0 0 1-.5-.5v-1a.5.5 0 0 1 .5-.5h4Zm-11 0a.5.5 0 0 1 .5.5v1a.5.5 0 0 1-.5.5h-4a.5.5 0 0 1-.5-.5v-1a.5.5 0 0 1 .5-.5h4Z"/>
</svg>
