<svg xmlns="http://www.w3.org/2000/svg" width="20" height="20">
  <path fill-rule="nonzero" d="M12.667 4c.368 0 .666.298.666.667v.666h1.334c.736 0 1.333.597 1.333 1.334v8c0 .736-.597 1.333-1.333 1.333H5.333A1.333 1.333 0 0 1 4 14.667v-8c0-.737.597-1.334 1.333-1.334h1.334v-.666a.667.667 0 1 1 1.333 0v.666h4v-.666c0-.369.298-.667.667-.667M7.333 6.667h-2V8h9.334V6.667H7.333Zm-2 2.666v5.334h9.334V9.333H5.333Zm1.334 1.334c0-.369.298-.667.666-.667h.007a.667.667 0 0 1 0 1.333h-.007a.667.667 0 0 1-.666-.666M7.333 12a.667.667 0 1 0 0 1.333h.007a.667.667 0 1 0 0-1.333h-.007Zm2-1.333c0-.369.299-.667.667-.667h.007a.667.667 0 0 1 0 1.333H10a.667.667 0 0 1-.667-.666M10 12a.667.667 0 1 0 0 1.333h.007a.667.667 0 1 0 0-1.333H10Zm2-1.333c0-.369.298-.667.667-.667h.006a.667.667 0 1 1 0 1.333h-.006a.667.667 0 0 1-.667-.666M12.667 12a.667.667 0 1 0 0 1.333h.006a.667.667 0 1 0 0-1.333h-.006Z"/>
</svg>