<svg xmlns="http://www.w3.org/2000/svg" width="16" height="16">
  <g fill="#2D364D" fill-rule="evenodd">
    <path fill-rule="nonzero" d="M13 1a3 3 0 0 1 3 3v9a3 3 0 0 1-3 3H3a3 3 0 0 1-3-3V4a3 3 0 0 1 3-3h10Zm0 1.5H3A1.5 1.5 0 0 0 1.5 4v9A1.5 1.5 0 0 0 3 14.5h10a1.5 1.5 0 0 0 1.5-1.5V4A1.5 1.5 0 0 0 13 2.5Z"/>
    <path fill-rule="nonzero" d="M13 1a3 3 0 0 1 3 3v2H0V4a3 3 0 0 1 3-3h10Zm0 1.5H3A1.5 1.5 0 0 0 1.5 4v.5h13V4a1.5 1.5 0 0 0-1.356-1.493L13 2.5Z"/>
    <path d="M4.75 0a.75.75 0 0 1 .75.75v2.5a.75.75 0 0 1-1.5 0V.75A.75.75 0 0 1 4.75 0ZM11.75 0a.75.75 0 0 1 .75.75v2.5a.75.75 0 1 1-1.5 0V.75a.75.75 0 0 1 .75-.75Z"/>
    <rect width="10" height="1.5" x="3" y="8" rx=".75"/>
    <path d="M3.75 11h2.5a.75.75 0 1 1 0 1.5h-2.5a.75.75 0 1 1 0-1.5Z"/>
  </g>
</svg>