<svg viewBox="0 0 32 32" xmlns="http://www.w3.org/2000/svg">
  <path d="M23.61 5.17A1.17 1.17 0 0 0 22.44 4H4.88a1.17 1.17 0 0 0-1.17 1.17v18.15l5.21-4.1h14.69V5.17Zm-2.643 1.022a.922.922 0 0 1-.295.676l-4.182 3.88a.922.922 0 0 1-1.027.155l-3.718-1.796-3.672 2.35a.922.922 0 1 1-.993-1.553l4.106-2.627a.922.922 0 0 1 .897-.054l3.615 1.746 3.72-3.452a.922.922 0 0 1 1.55.675ZM19.02 16.3v-5.485a.983.983 0 1 1 1.966 0V16.3a.983.983 0 0 1-1.966 0Zm8.1-5.3H26v12.18l-2.06-1.62h-12v1.17c0 .646.524 1.17 1.17 1.17h10l5.18 4.1V12.2a1.17 1.17 0 0 0-1.17-1.2Zm-16.486 5.3v-4.315a.983.983 0 0 1 1.966 0V16.3a.983.983 0 0 1-1.966 0Zm-4.073 0v-2.792a.983.983 0 1 1 1.966 0v2.791a.983.983 0 1 1-1.966 0Zm8.266 0v-2.543a.983.983 0 1 1 1.966 0V16.3a.983.983 0 1 1-1.966 0Z"/>
</svg>
