<svg xmlns="http://www.w3.org/2000/svg" viewBox="0 0 48 48">
  <defs>
    <linearGradient id="a" x1="50%" x2="50%" y1="0%" y2="100%">
      <stop offset="0%" stop-color="#6384FE" stop-opacity=".708"/>
      <stop offset="100%" stop-color="#0443FE" stop-opacity=".79"/>
    </linearGradient>
  </defs>
  <g fill="none" fill-rule="evenodd">
    <rect width="48" height="48" fill="#CEDAFF" rx="24"/>
    <path fill="url(#a)" d="m14.878 34.767 6.8-6.793a2.327 2.327 0 0 0 2.247-.602 2.323 2.323 0 0 0 0-3.287 2.327 2.327 0 0 0-3.892 2.245l-6.8 6.794L12 31.891c2.878-5.062 4.722-10.1 6.168-15.201l7.402-.822 6.58 6.574-.823 7.395C25.074 31.891 20.635 33.124 16.112 36l-1.234-1.233Zm13.57-22.597 7.382 7.376a.58.58 0 0 1-.322.984l-1.714.268-6.58-6.573.247-1.726a.581.581 0 0 1 .987-.329Z"/>
  </g>
</svg>
