<svg xmlns="http://www.w3.org/2000/svg" viewBox="0 0 48 48">
  <defs>
    <linearGradient id="a" x1="50%" x2="50%" y1="0%" y2="100%">
      <stop offset="0%" stop-color="#F56168" stop-opacity=".532"/>
      <stop offset="100%" stop-color="#F0607F"/>
    </linearGradient>
  </defs>
  <g fill="none" fill-rule="evenodd">
    <rect width="48" height="48" fill="#FFCED7" rx="24"/>
    <path fill="url(#a)" d="M21.797 21.523c.218 0 .428.085.582.235a.79.79 0 0 1 .242.568v.468a.303.303 0 0 0 .211.29c1.227.39 2.056 1.505 2.057 2.762H1.846c0-1.432 1.072-2.651 2.525-2.872a.307.307 0 0 0 .264-.301v-.347c0-.444.369-.803.824-.803Zm-7.59-20.39a.756.756 0 0 1 1.048 0l5.595 5.45a.71.71 0 0 1 0 1.02l-.03.029a.754.754 0 0 1-1.046 0l-3.14 3.053 8.73 7.92c.3.273.475.653.482 1.053.007.4-.153.786-.443 1.07-.29.283-.687.44-1.098.433a1.531 1.531 0 0 1-1.082-.47l-8.132-8.504-3.137 3.057c.29.284.29.74.002 1.02l-.029.03a.756.756 0 0 1-1.047 0l-5.595-5.45a.71.71 0 0 1 0-1.02l.027-.03a.756.756 0 0 1 1.048 0l7.819-7.612a.705.705 0 0 1-.002-1.02Zm-.055 2.785-5.81 5.819 1.126 1.159 5.81-5.819-1.126-1.159Z" transform="translate(11.077 11.077)"/>
  </g>
</svg>
