<svg xmlns="http://www.w3.org/2000/svg" viewBox="0 0 32 32"
     style="--background-color:#2D364D; --foreground-color: white; --animation-play-state: running">
  <style>
    @keyframes rotate {
    from {
    transform: rotate(0deg);
    }
    to {
    transform: rotate(360deg);
    }
    }
    .r1{
    animation: rotate 1.2s linear infinite;
    transform-origin:center;
    animation-play-state: var(--animation-play-state);
    }
  </style>
  <path class="r1" fill="var(--background-color)"
        d="M26.3606301 8.48401287C22.2097762 2.76277089 14.2068647 1.48928182 8.48507583 5.6395077 2.76328698 9.78973358 1.4890721 17.7922669 5.63894949 23.5142171c4.1498774 5.7219503 12.15257141 6.9968052 17.87506851 2.8475558 2.7486655-1.9929933 4.5928421-4.9963785 5.1267064-8.3492405.5338643-3.3528619-.2863303-6.78045695-2.2800943-9.52851953ZM8.3798718 18.99974c-1.35427002-3.471395-.19491627-7.41938393 2.82129139-9.60744492 3.01620761-2.18806098 7.12918401-2.06480195 10.00894221.29995128l-1.7304944 1.24919057c-2.1433468-1.46986046-4.9797336-1.43210316-7.08319227.09428977-2.10345869 1.52639292-3.0188834 4.21117-2.28605253 6.7045835L8.3798718 18.99974Zm12.4308887 3.6554183c-3.0233439 2.1911781-7.1459255 2.0606411-10.02457993-.3174173l1.7304944-1.2491905c2.14334673 1.4698604 4.97973363 1.4321031 7.08319223-.0942898 2.1034587-1.5263929 3.0188834-4.21117 2.2860526-6.7045835l1.7304944-1.25942982c1.3666084 3.47281192.213 7.43031322-2.8056537 9.62491092Z"/>
</svg>
