<svg viewBox="0 0 20 20" xmlns="http://www.w3.org/2000/svg">
  <path fill="#2D364D" fill-rule="nonzero" d="M8.264 3.5c.38 0 .745.16 1.01.443l.083.1.979 1.263H15.6c.733 0 1.342.582 1.396 1.336L17 6.75v8.306c0 .755-.564 1.384-1.295 1.44l-.105.004H4.4c-.733 0-1.342-.582-1.396-1.336L3 15.056V4.944c0-.755.564-1.384 1.295-1.44L4.4 3.5h3.864Zm0 1.444H4.4v10.112h11.2V6.75h-5.264c-.38 0-.745-.16-1.01-.443l-.083-.1-.979-1.263ZM9.758 8.7a.275.275 0 0 1 .447-.052l.037.052.626 1.109 1.216.271c.087.02.16.082.197.166a.297.297 0 0 1-.014.262l-.033.048-.83.957.125 1.276a.294.294 0 0 1-.093.246.274.274 0 0 1-.248.065l-.05-.017L10 12.565l-1.138.517a.272.272 0 0 1-.256-.016.29.29 0 0 1-.136-.224v-.054l.126-1.276-.829-.957a.295.295 0 0 1-.065-.254.287.287 0 0 1 .16-.204l.054-.018 1.216-.271.626-1.109Z"/>
</svg>
