<svg xmlns="http://www.w3.org/2000/svg" width="14" height="14">
    <path fill="#FFCC64" fill-rule="nonzero" d="M4.364 13.893a1.711 1.711 0 0 1-1.62-.234 1.818 1.818 0 0 1-.724-1.508l.072-2.737a.612.612 0 0 0-.119-.38L.357 6.844a1.842 1.842 0 0 1-.27-1.648A1.775 1.775 0 0 1 1.25 4.03l2.52-.774a.585.585 0 0 0 .317-.24L5.55.793C5.875.297 6.419 0 7 0s1.125.297 1.45.792l1.464 2.225c.075.115.187.2.316.239l2.52.774c.55.17.985.605 1.164 1.166a1.842 1.842 0 0 1-.27 1.647l-1.617 2.191a.612.612 0 0 0-.118.38l.071 2.737a1.818 1.818 0 0 1-.724 1.508 1.711 1.711 0 0 1-1.62.234l-2.438-.903a.569.569 0 0 0-.396 0l-2.438.903Z"/>
</svg>