<svg xmlns="http://www.w3.org/2000/svg" xmlns:xlink="http://www.w3.org/1999/xlink" viewBox="0 0 48 48">
  <defs>
    <linearGradient id="b" x1="50%" x2="50%" y1="0%" y2="100%">
      <stop offset="0%" stop-color="#6170FF"/>
      <stop offset="41.19%" stop-color="#A8B4FF"/>
      <stop offset="100%" stop-color="#CEDAFF"/>
    </linearGradient>
    <linearGradient id="f" x1="50%" x2="50%" y1="0%" y2="100%">
      <stop offset="0%" stop-color="#FFF"/>
      <stop offset="100%" stop-color="#EFF3FF" stop-opacity=".95"/>
    </linearGradient>
    <linearGradient id="g" x1="107.99%" x2="0%" y1="50%" y2="50%">
      <stop offset="0%" stop-color="#B0BCFF"/>
      <stop offset="100%" stop-color="#7280FF"/>
    </linearGradient>
    <linearGradient id="i" x1="107.99%" x2="0%" y1="50%" y2="50%">
      <stop offset="0%" stop-color="#B0BCFF"/>
      <stop offset="100%" stop-color="#7280FF"/>
    </linearGradient>
    <linearGradient id="j" x1="107.99%" x2="0%" y1="50%" y2="50%">
      <stop offset="0%" stop-color="#B0BCFF"/>
      <stop offset="100%" stop-color="#7280FF"/>
    </linearGradient>
    <linearGradient id="m" x1="-.93%" x2="80.63%" y1="106.03%" y2="13.7%">
      <stop offset="0%" stop-color="#97ADFF"/>
      <stop offset="100%" stop-color="#383BFB" stop-opacity=".79"/>
    </linearGradient>
    <filter id="e" width="153.8%" height="143.8%" x="-26.9%" y="-15.6%" filterUnits="objectBoundingBox">
      <feOffset dy="2" in="SourceAlpha" result="shadowOffsetOuter1"/>
      <feGaussianBlur in="shadowOffsetOuter1" result="shadowBlurOuter1" stdDeviation="2"/>
      <feColorMatrix in="shadowBlurOuter1" values="0 0 0 0 0.670588235 0 0 0 0 0.749019608 0 0 0 0 1 0 0 0 1 0"/>
    </filter>
    <filter id="k" width="193.3%" height="187.5%" x="-46.7%" y="-31.3%" filterUnits="objectBoundingBox">
      <feOffset dy="2" in="SourceAlpha" result="shadowOffsetOuter1"/>
      <feGaussianBlur in="shadowOffsetOuter1" result="shadowBlurOuter1" stdDeviation="2"/>
      <feColorMatrix in="shadowBlurOuter1" values="0 0 0 0 1 0 0 0 0 1 0 0 0 0 1 0 0 0 0.5 0"/>
    </filter>
    <path id="d" d="M24.56 0c.8 0 1.44.72 1.44 1.6v28.8c0 .88-.65 1.6-1.44 1.6H1.44C.64 32 0 31.28 0 30.4V1.6C0 .72.65 0 1.44 0h23.12Z"/>
    <path id="l" d="M28.5 23a4.13 4.13 0 0 1 2 7.74l.63 3.23h3.06c.7 0 1.28.52 1.36 1.22L36 39H21l.51-3.83c.1-.69.68-1.2 1.37-1.2h2.98l.65-3.23A4.13 4.13 0 0 1 28.5 23Zm.9 1.07a.58.58 0 0 0-.73.35c-.1.3.05.62.35.72a2.27 2.27 0 0 1 1.55 2.14c0 .31.26.57.58.57.31 0 .57-.26.57-.57a3.4 3.4 0 0 0-2.32-3.21Z"/>
    <circle id="a" cx="21" cy="21" r="21"/>
  </defs>
  <g fill="none" fill-rule="evenodd" transform="translate(3 3)">
    <mask id="c" fill="#fff">
      <use xlink:href="#a"/>
    </mask><use xlink:href="#a" fill="url(#b)"/>
    <g mask="url(#c)">
      <g transform="translate(8 10)">
        <mask id="h" fill="#fff">
          <use xlink:href="#d"/>
        </mask>
        <use xlink:href="#d" fill="#000" filter="url(#e)"/>
        <use xlink:href="#d" fill="url(#f)"/>
        <path fill="url(#g)" fill-rule="nonzero" d="M3 17v-2h11v2zM3 7V5h11v2z" mask="url(#h)"/>
        <path fill="url(#i)" fill-rule="nonzero" d="M3 12v-2h18v2z" mask="url(#h)"/>
        <path fill="url(#j)" fill-rule="nonzero" d="M3 22v-2h8v2z" mask="url(#h)"/>
      </g>
    </g>
    <g mask="url(#c)">
      <use xlink:href="#l" fill="#000" filter="url(#k)"/>
      <use xlink:href="#l" fill="url(#m)"/>
    </g>
  </g>
</svg>
