<svg viewBox="0 0 14 14" xmlns="http://www.w3.org/2000/svg">
  <path d="M9.58 6.99c0-.61-.05-1.18-.13-1.75H4.48a11.37 11.37 0 0 0 0 3.5H9.5c.04-.57.09-1.14.09-1.75ZM.7 10.04a7.24 7.24 0 0 0 3.78 3.5c-.52-1.1-.91-2.27-1.13-3.5H.7Zm12.54 0h-2.66c-.26 1.23-.65 2.4-1.13 3.5 1.65-.66 3-1.92 3.79-3.5ZM10.88 7c0 .6-.04 1.18-.08 1.74h2.91c.13-.56.22-1.13.22-1.74 0-.61-.09-1.18-.22-1.75H10.8c.04.57.08 1.14.08 1.75ZM3.13 8.73C3.1 8.17 3.05 7.6 3.05 7c0-.61.04-1.18.08-1.75H.22A7.68 7.68 0 0 0 0 7c0 .6.09 1.18.22 1.74h2.91Zm10.1-4.8A7.24 7.24 0 0 0 9.46.43c.52 1.1.91 2.28 1.13 3.5h2.66ZM4.54.43a6.77 6.77 0 0 0-3.79 3.5H3.4c.21-1.22.6-2.4 1.13-3.5ZM7.7.05C7.49 0 7.23 0 6.97 0c-.27 0-.53 0-.74.04a13.15 13.15 0 0 0-1.53 3.9h4.53c-.3-1.4-.83-2.72-1.52-3.9Zm0 13.9c.7-1.19 1.22-2.5 1.52-3.9H4.7c.3 1.4.83 2.71 1.53 3.9H7.7Z"/>
</svg>
