<svg viewBox="0 0 20 20" xmlns="http://www.w3.org/2000/svg">
  <path d="M2 11.034h4.266c.14 2.564.959 4.946 2.278 6.966-3.477-.544-6.193-3.405-6.544-6.966Zm0-1.568C2.351 5.905 5.067 3.044 8.544 2.5a14.107 14.107 0 0 0-2.278 6.966H2Zm15.5 0h-4.267A14.107 14.107 0 0 0 10.956 2.5c3.477.544 6.193 3.405 6.544 6.966Zm0 1.568c-.351 3.561-3.067 6.422-6.544 6.966a14.107 14.107 0 0 0 2.277-6.966H17.5Zm-9.673 0h3.846A12.538 12.538 0 0 1 9.75 16.99a12.538 12.538 0 0 1-1.923-5.955Zm0-1.568A12.538 12.538 0 0 1 9.75 3.51a12.538 12.538 0 0 1 1.923 5.955H7.827Z"/>
</svg>
