<svg xmlns="http://www.w3.org/2000/svg" viewBox="0 0 28 28">
  <path d="M20.7 16c2.06 0 3.72 1.63 3.72 3.63 0 .68-.2 1.31-.52 1.85l1.28 1.28c.18.18.18.47 0 .65l-.66.65a.45.45 0 0 1-.64 0l-1.29-1.3c-.55.33-1.2.5-1.88.5A3.67 3.67 0 0 1 17 19.64c0-2 1.66-3.63 3.7-3.63ZM23 5a1 1 0 0 1 1 1v8.8a6 6 0 0 0-8.66 7.2H5a1 1 0 0 1-1-1V6a1 1 0 0 1 1-1h18Zm-2.3 12.82c-1.02 0-1.85.81-1.85 1.81s.83 1.82 1.86 1.82c1.02 0 1.85-.81 1.85-1.82 0-1-.83-1.81-1.85-1.81ZM19 9h-5l1.8 1.8-2.46 2.44-2.12-2.12-4.24 4.24 1.41 1.42 2.83-2.83 2.12 2.12 3.87-3.86L19 14V9Z"/>
</svg>
