<svg viewBox="0 0 32 32" xmlns="http://www.w3.org/2000/svg">
  <g stroke="none" stroke-width="1" fill-rule="evenodd">
    <path
      d="M19.92175,8.14675035 C19.38775,7.61175035 18.45675,7.61475035 17.92575,8.14575035 L9.39975,16.6717504 C9.20475,16.8667504 9.20475,17.1837504 9.39975,17.3787504 L10.10575,18.0857504 C10.30075,18.2807504 10.61875,18.2807504 10.81375,18.0857504 L17.92375,10.9757504 L17.92375,24.7787504 C17.92375,25.0407504 18.13575,25.2537504 18.39775,25.2537504 L19.44875,25.2537504 C19.71175,25.2537504 19.92375,25.0407504 19.92375,24.7787504 L19.92375,10.9767504 L27.03275,18.0857504 C27.22775,18.2807504 27.54575,18.2807504 27.73975,18.0857504 L28.44675,17.3787504 C28.64175,17.1837504 28.64175,16.8667504 28.44675,16.6717504 L19.92175,8.14675035 Z"
      transform="translate(18.923250, 16.500125) rotate(-90.000000) translate(-18.923250, -16.500125) "></path>
    <path
      d="M15.5,17.4996252 L-3.5,17.4996252 C-3.777,17.4996252 -4,17.2756252 -4,16.9996252 L-4,15.9996252 C-4,15.7226252 -3.777,15.4996252 -3.5,15.4996252 L15.5,15.4996252 C15.776,15.4996252 16,15.7226252 16,15.9996252 L16,16.9996252 C16,17.2756252 15.776,17.4996252 15.5,17.4996252"
      transform="translate(6.000000, 16.499625) rotate(-90.000000) translate(-6.000000, -16.499625) "></path>
  </g>
</svg>
