<svg viewBox="0 0 17 17" xmlns="http://www.w3.org/2000/svg" style="color: #2D364D" fill="currentColor">
  <path d="m6.202 0 2.97 2.399H15a2 2 0 0 1 2 2v4.128l-.03-.02-1.47-.888v-3.22a.5.5 0 0 0-.5-.5H8.641l-.412-.333L5.672 1.5H2a.5.5 0 0 0-.5.5v12a.5.5 0 0 0 .5.5h3.69L7.883 16H2a2 2 0 0 1-2-2V2a2 2 0 0 1 2-2h4.202Z"/>
  <path stroke="currentColor" stroke-width="1.5" fill="none" d="m12 7.905 3.455 1.955a.25.25 0 0 1 .125.216v3.846a.25.25 0 0 1-.125.216l-3.33 1.923a.25.25 0 0 1-.25 0l-3.33-1.923a.25.25 0 0 1-.125-.216v-3.845a.25.25 0 0 1 .125-.216l3.33-1.923A.25.25 0 0 1 12 7.905Z"/>
  <circle cx="12" cy="12" r="1"/>
</svg>
