<svg xmlns="http://www.w3.org/2000/svg" viewBox="0 0 32 32">
  <path d="M16,3.8A12.5,12.5,0,1,0,28.5,16.3,12.51,12.51,0,0,0,16,3.8Zm-1,6.69a12.35,12.35,0,0,1-2.92-.63A6.69,6.69,0,0,1,15,6Zm0,2V15.3H11a18.72,18.72,0,0,1,.47-3.53A14,14,0,0,0,15,12.49Zm0,4.81v3.3a14.55,14.55,0,0,0-3.39.67,18.66,18.66,0,0,1-.58-4Zm0,5.3v4a6.41,6.41,0,0,1-2.75-3.38A12.57,12.57,0,0,1,15,22.6Zm2,0a12.27,12.27,0,0,1,2.79.5A6.54,6.54,0,0,1,17,26.56Zm0-2V17.3h4a18.67,18.67,0,0,1-.56,3.88A14.76,14.76,0,0,0,17,20.58Zm0-5.28V12.51a14.21,14.21,0,0,0,3.52-.64A18.62,18.62,0,0,1,21,15.3Zm0-4.79V6c1.13.52,2.2,1.9,3,3.92A12.19,12.19,0,0,1,17,10.51ZM20.65,6.9A10.39,10.39,0,0,1,23,8.49a11,11,0,0,1-1.19.71A13.34,13.34,0,0,0,20.65,6.9ZM10.26,9.06a11.62,11.62,0,0,1-1.11-.71,10.74,10.74,0,0,1,2.2-1.45A12.82,12.82,0,0,0,10.26,9.06ZM9.65,11A20.43,20.43,0,0,0,9,15.3H5.55A10.42,10.42,0,0,1,7.76,9.82,13.37,13.37,0,0,0,9.65,11ZM9,17.3A20.83,20.83,0,0,0,9.76,22,12.93,12.93,0,0,0,8,23.09,10.41,10.41,0,0,1,5.55,17.3ZM10.43,24a13.09,13.09,0,0,0,.92,1.75,10.39,10.39,0,0,1-1.87-1.19C9.79,24.31,10.1,24.12,10.43,24Zm11.2-.15c.36.18.71.38,1.05.59a10.51,10.51,0,0,1-2,1.31A13,13,0,0,0,21.63,23.8Zm.65-1.91A20.94,20.94,0,0,0,23,17.3h3.48A10.42,10.42,0,0,1,24.12,23,12,12,0,0,0,22.28,21.89ZM23,15.3a20.56,20.56,0,0,0-.58-4.15,13.29,13.29,0,0,0,2-1.17,10.39,10.39,0,0,1,2.09,5.32Z"/>
</svg>
