<svg width="14px" height="14px" xmlns="http://www.w3.org/2000/svg">
  <path
      d="M12.18 12.39a.17.17 0 0 1-.12-.16v-.27a.43.43 0 0 0-.14-.31.5.5 0 0 0-.34-.13H2.1c-.27 0-.48.2-.48.44v.2c0 .08-.07.15-.15.17-.85.12-1.47.8-1.47 1.6h13.38c0-.7-.49-1.32-1.2-1.54Zm1.47-2.5L8.58 5.45l1.83-1.71c.16.16.44.16.6 0l.02-.02a.39.39 0 0 0 0-.57L7.78.12a.45.45 0 0 0-.6 0l-.02.01a.39.39 0 0 0-.13.29c0 .1.05.2.13.28L2.62 4.96a.45.45 0 0 0-.6 0L2 4.98a.39.39 0 0 0 0 .57l3.24 3.04c.17.16.44.16.61 0l.02-.01a.39.39 0 0 0 0-.57L7.69 6.3l4.72 4.75a.9.9 0 0 0 .63.26.9.9 0 0 0 .63-.24.8.8 0 0 0 .26-.6.8.8 0 0 0-.28-.59ZM3.9 5.31a.19.19 0 0 1-.25 0V5.3a.16.16 0 0 1 0-.24l3.64-3.42a.19.19 0 0 1 .25 0c.08.07.08.18 0 .24L3.9 5.32Z"/>
</svg>
