<svg viewBox="0 0 20 20"  xmlns="http://www.w3.org/2000/svg">
  <path d="M13.86,1.87 C14.21,1.87 14.55,1.96 14.86,2.13 C15.84,2.68 16.2031007,3.92672917 15.6542207,4.91376273 L15.606,5 L17.25,5 C17.3880712,5 17.5,5.11192881 17.5,5.25 L17.5,9.75 C17.5,9.88807119 17.3880712,10 17.25,10 L16.875,10 L16.875,17.25 C16.875,17.38 16.76,17.5 16.625,17.5 L3.37,17.5 C3.23692881,17.5 3.125,17.38 3.125,17.25 L3.125,10 L2.75,10 C2.61192881,10 2.5,9.88807119 2.5,9.75 L2.5,5.25 C2.5,5.11192881 2.61192881,5 2.75,5 L4.425,5 L4.37713376,4.91376273 C3.82825378,3.92672917 4.18344744,2.68162525 5.170481,2.13274527 C5.47444978,1.96371112 5.81650932,1.875 6.16431611,1.875 C7.88166733,1.875 8.85831913,2.74067953 9.7991362,4.17739749 L10.015,4.508 L10.2322182,4.17739749 C11.1302709,2.8059849 12.0609746,1.95487797 13.637379,1.88033811 Z M9.374,10 L4.375,10 L4.375,16.25 L9.374,16.25 L9.374,10 Z M15.625,10 L10.624,10 L10.624,16.25 L15.625,16.25 L15.625,10 Z M9.374,6.25 L3.75,6.25 L3.75,8.75 L9.374,8.75 L9.374,6.25 Z M16.25,6.25 L10.624,6.25 L10.624,8.75 L16.25,8.75 L16.25,6.25 Z M6.16,3.12 C6.02,3.12 5.89,3.15 5.77,3.22 C5.39,3.43 5.25,3.92 5.46,4.30 L5.85,5 L8.84,5 L8.75,4.86 C8.07,3.82 7.55,3.18 6.32,3.12 L6.16,3.125 Z M13.86,3.125 L13.7055526,3.12838582 C12.47,3.18 11.95,3.82 11.27,4.86 L11.18,5 L14.17,5 L14.56,4.30 C14.77,3.92 14.63,3.43 14.25,3.22 C14.13,3.15 14.00,3.12 13.86,3.12 Z" id="形状结合"></path>
</svg>
