<svg viewBox="0 0 32 32" xmlns="http://www.w3.org/2000/svg">
  <path d="M11.33 9.04H25.7c.18 0 .32-.12.32-.25v-1.5c0-.14-.14-.25-.32-.25H11.33c-.17 0-.31.1-.31.25v1.5c0 .13.14.25.31.25ZM5.57 6.5h2c.28 0 .5.22.5.5v2a.5.5 0 0 1-.5.5h-2a.5.5 0 0 1-.5-.5V7c0-.28.23-.5.5-.5Zm0 8h2c.28 0 .5.22.5.5v2a.5.5 0 0 1-.5.5h-2a.5.5 0 0 1-.5-.5v-2c0-.28.23-.5.5-.5Zm0 8h2c.28 0 .5.22.5.5v2a.5.5 0 0 1-.5.5h-2a.5.5 0 0 1-.5-.5v-2c0-.28.23-.5.5-.5Zm5.76-5.46H25.7c.18 0 .32-.12.32-.25v-1.5c0-.14-.14-.25-.32-.25H11.33c-.17 0-.31.1-.31.25v1.5c0 .13.14.25.31.25Zm0 8H25.7c.18 0 .32-.12.32-.25v-1.5c0-.14-.14-.25-.32-.25H11.33c-.17 0-.31.1-.31.25v1.5c0 .13.14.25.31.25Z"/>
</svg>
