<svg viewBox="0 0 12 14" version="1.1" xmlns="http://www.w3.org/2000/svg">
  <path
    d="M9.33333333,4.26666667 L10.5777778,4.26666667 C10.9214311,4.26666667 11.2,4.53956267 11.2,4.87619048 L11.2,12.1904762 C11.2,12.5271162 10.9214311,12.8 10.5777778,12.8 L0.622222222,12.8 C0.278581333,12.8 -4.4408921e-16,12.5271162 -4.4408921e-16,12.1904762 L-4.4408921e-16,4.87619048 C-4.4408921e-16,4.53956267 0.278581333,4.26666667 0.622222222,4.26666667 L1.86666667,4.26666667 L1.86666667,3.65714286 C1.86666667,1.63735771 3.538136,0 5.6,0 C7.66185778,0 9.33333333,1.63735771 9.33333333,3.65714286 L9.33333333,4.26666667 Z M4.97777778,8.97974857 L4.97777778,10.3619048 L6.22222222,10.3619048 L6.22222222,8.97974857 C6.59418667,8.76897524 6.84444444,8.37504 6.84444444,7.92380952 C6.84444444,7.25052952 6.28730667,6.7047619 5.6,6.7047619 C4.91269333,6.7047619 4.35555556,7.25052952 4.35555556,7.92380952 C4.35555556,8.37504 4.60581333,8.76897524 4.97777778,8.97974857 Z M8.08888889,4.26666667 L8.08888889,3.65714286 C8.08888889,2.31061943 6.97455111,1.21904762 5.6,1.21904762 C4.225424,1.21904762 3.11111111,2.31061943 3.11111111,3.65714286 L3.11111111,4.26666667 L8.08888889,4.26666667 Z"/>
</svg>
