<svg viewBox="0 0 411 83" xmlns="http://www.w3.org/2000/svg">
  <defs>
    <linearGradient x1="50%" y1="0%" x2="50%" y2="100%" id="linearGradient-1">
      <stop stop-color="#5F5AF7" offset="0%"/>
      <stop stop-color="#0243FF" offset="100%"/>
    </linearGradient>
    <linearGradient x1="50%" y1="0%" x2="50%" y2="100%" id="linearGradient-2">
      <stop stop-color="#9267F9" offset="0%"/>
      <stop stop-color="#0243FE" offset="100%"/>
    </linearGradient>
    <linearGradient x1="50%" y1="0%" x2="50%" y2="100%" id="linearGradient-3">
      <stop stop-color="#B66AEA" offset="0%"/>
      <stop stop-color="#FF6A71" offset="100%"/>
    </linearGradient>
  </defs>

  <path fill="url(#linearGradient-1)" d="m30.185 39.03-.532-.5c-2.107-2.14-4.194-4.3-6.301-6.41a5.13 5.13 0 0 0-6.171-.97 4.91 4.91 0 0 0-1.134 7.68c6.371 6.31 12.763 12.6 19.165 18.89 3.06 3.01 6.141 6.02 9.192 9.05.843.83 1.635 1.73 2.388 2.53L43.3 72.92c-.16-.15-.351-.3-.532-.48L30.416 60.28 19.639 49.67c-2.599-2.55-5.198-5.1-7.777-7.66A9.025 9.025 0 0 1 9 35.406a9.026 9.026 0 0 1 2.882-6.596c3.733-3.68 7.476-7.33 11.229-10.99.936-.907 1.88-1.807 2.83-2.7a7.696 7.696 0 0 1 10.225-.3c1.565 1.37 2.98 2.93 4.485 4.43-.703.73-1.355 1.45-2.047 2.12-2.438 2.36-4.937 4.67-7.325 7.08a8.587 8.587 0 0 0-1.345 9.91l.331.6-.08.07Z"/>
  <path fill="url(#linearGradient-2)" d="M67.794 69.36c-1.104 1.24-2.268 2.2-3.552 3.64a13.214 13.214 0 0 0-1.074-1.22l-8.429-8.7-13.165-13.56c-2.79-2.89-5.59-5.78-8.389-8.65-1.605-1.65-2.709-3.52-2.87-5.87a8.134 8.134 0 0 1 2.369-6.62c4.585-4.52 9.221-9 13.887-13.43 2.71-2.58 7.145-2.6 9.814-.06 2.077 1.99 4.044 4.1 6.04 6.13-1.073 1.1-2.097 2.19-3.15 3.23-1.807 1.8-3.693 3.51-5.429 5.36-2.539 2.69-2.91 6.95-1.034 10.4.06.13.13.25.11.45l-1.103-1.11c-2.67-2.75-5.318-5.52-8.007-8.24a4.748 4.748 0 0 0-6.485.048 4.708 4.708 0 0 0-.359 6.452c2.88 2.98 5.77 5.94 8.65 8.9l13.877 14.28 8.098 8.34.21.24-.01-.01Z"/>
  <path fill="url(#linearGradient-3)" d="m79.695 59.11-3.593 3.72-2.508-2.47c-.362-.37-.703-.77-1.074-1.14-5.59-5.64-11.138-11.32-16.767-16.92a9.285 9.285 0 0 1-2.905-6.797 9.286 9.286 0 0 1 2.985-6.763c3.532-3.34 6.944-6.79 10.415-10.18l3.181-3.07c3.402-3.33 8.088-3.33 11.44.07 4.184 4.26 8.328 8.55 12.492 12.83l6.683 6.83c1.285 1.32 1.275 2.78-.03 4.06-3.669 3.597-7.342 7.19-11.018 10.78-.742.73-1.505 1.43-2.107 1.99-1.033-.94-2.077-1.8-3.03-2.77-2.63-2.65-5.228-5.33-7.827-8-2.99-3.07-5.96-6.15-8.97-9.2a5.02 5.02 0 0 0-6.877.112 4.978 4.978 0 0 0-.278 6.848c.632.68 1.304 1.32 1.956 1.98l15.313 15.46c.863.88 1.706 1.78 2.519 2.63Z"/>

  <g fill="#1B1464">
    <path d="M146.458 18.728c-.04 12.2-2.399 22.726-7.07 31.582-4.673 8.856-11.892 16.08-21.656 21.675-.085.04-.17 0-.252-.127l-3.03-5.174c-.042-.085-.023-.167.063-.252 8.88-5.09 15.35-11.506 19.413-19.246 4.063-7.739 6.093-17.204 6.093-28.395 0-.126.063-.189.19-.189h6.06c.126 0 .19.041.19.126Zm24.812 16.785v5.931c0 .126-.04.19-.126.19h-55.81c-.086 0-.127-.064-.127-.19v-5.931c0-.126.041-.19.126-.19h55.811c.085 0 .126.064.126.19Zm-2.84-19.687v5.931c0 .126-.042.19-.127.19h-50.129c-.085 0-.126-.064-.126-.19v-5.931c0-.127.041-.19.126-.19h50.129c.085 0 .126.063.126.19Zm-16.542 22.779v24.861h14.331v-6.752c0-.126.042-.189.127-.189h6.06c.127 0 .19.063.19.19v12.872c0 .04-.01.072-.032.095-.022.022-.072.031-.157.031h-26.77a.267.267 0 0 1-.126-.031c-.04-.023-.063-.054-.063-.095V38.605c0-.085.063-.126.19-.126h6.06c.127 0 .19.04.19.126Z"/>
    <path d="M194.829 45.525a272.286 272.286 0 0 1-3.21 12.224 160.015 160.015 0 0 1-3.909 11.848c-.085.125-.171.166-.254.125l-5.656-2.006c-.128-.084-.15-.169-.064-.25 2.882-7.774 5.148-15.503 6.8-23.194.086-.126.147-.189.191-.189l5.975 1.254c.085 0 .127.063.127.188Zm-6.038-33.412 5.02 11.41c.042.084.023.165-.063.25l-5.466 2.32c-.085.04-.168.021-.254-.063l-5.084-11.472c-.042-.085 0-.166.127-.25l5.466-2.257c.085-.085.168-.063.254.062Zm0 16.048 5.02 11.472c.042.084.023.166-.063.25l-5.466 2.257c-.085.085-.168.063-.254-.062l-5.084-11.41c-.042-.084 0-.166.127-.25l5.466-2.32c.085-.04.168-.022.254.063Zm52.37-13.603v5.767c0 .126-.063.188-.19.188h-36.418v18.242c0 11.7-1.611 22.15-4.83 31.343-.086.085-.15.104-.191.063l-5.72-1.755c-.086-.085-.105-.166-.064-.25 2.965-8.526 4.45-18.327 4.45-29.4V14.557c0-.04.009-.072.031-.094.022-.022.073-.031.159-.031h42.583c.127 0 .19.04.19.125Zm.509 48.896v5.641c0 .085-.041.126-.127.126H205.76c-.127 0-.19-.04-.19-.126v-5.641c0-.085.063-.126.19-.126h35.783c.086 0 .127.041.127.126Zm-.763-25.138v5.642c0 .085-.063.125-.19.125h-33.813c-.085 0-.127-.04-.127-.125v-5.642c0-.125.042-.188.127-.188h33.813c.127 0 .19.063.19.188ZM239.7 50.478v5.641c0 .126-.042.188-.127.188h-31.906c-.086 0-.127-.062-.127-.188v-5.641c0-.085.041-.126.127-.126h31.906c.085 0 .127.04.127.126Zm-.318-23.759v5.642c0 .085-.041.125-.127.125h-31.016c-.086 0-.127-.04-.127-.125V26.72c0-.125.041-.188.127-.188h31.016c.086 0 .127.063.127.188ZM226.67 45.588v20.561c0 .085-.064.126-.191.126h-5.974c-.128 0-.191-.041-.191-.126V45.588c0-.125.063-.188.19-.188h5.975c.127 0 .19.063.19.188Zm.38-23.194v18.555c0 .126-.063.188-.19.188h-6.038c-.085 0-.127-.062-.127-.188V22.394c0-.085.042-.125.127-.125h6.038c.127 0 .19.04.19.125Z"/>
    <circle cx="259" cy="42" r="5"/>
    <path d="M283.735 26.42v43.575c0 .124-.062.187-.187.187h-5.967c-.125 0-.187-.063-.187-.187V26.42c0-.085.062-.125.187-.125h5.967c.125 0 .187.04.187.125Zm2.673-14.337 4.289 10.223c.04.084.022.166-.062.25L285.04 24.8c-.084.084-.146.062-.186-.063l-4.29-10.223c-.04-.084-.021-.146.063-.187l5.594-2.306c.04-.041.103-.022.187.062Zm4.32 18.483c.022-.022.053-.031.093-.031h25.86c.04 0 .072.01.093.031.022.022.031.053.031.094v27.304c0 .084-.009.134-.03.155-.022.022-.053.032-.094.032h-25.86c-.04 0-.071-.01-.093-.032-.022-.021-.031-.071-.031-.155V30.66c0-.04.01-.072.031-.094Zm39.318-15.397c.04.021.062.053.062.093v54.421c0 .084-.021.134-.062.156a.262.262 0 0 1-.124.031h-12.06c-.084 0-.124-.062-.124-.187v-5.86c0-.124.04-.187.124-.187h5.906V21.31h-29.714c-.084 0-.125-.04-.125-.125v-5.922c0-.084.04-.125.125-.125h35.868c.04 0 .084.01.124.032Zm-19.395 21.475h-13.8v15.397h13.8V36.644Z"/>
    <path d="M362.899 22.644v17.524c0 6.391-1.054 12.137-3.165 17.24-2.11 5.1-5.61 9.936-10.506 14.508-.085.085-.168.104-.253.063l-4.304-4.572c-.041-.04-.022-.127.063-.254 4.304-3.977 7.32-8.054 9.051-12.222 1.731-4.169 2.595-9.09 2.595-14.763V22.644c0-.086.041-.127.127-.127h6.202c.127 0 .19.041.19.127Zm10.316 15.81v6.032c0 .086-.04.127-.126.127H345.05c-.086 0-.127-.041-.127-.127v-6.032c0-.086.041-.127.127-.127h28.038c.085 0 .126.041.126.127ZM352.9 13.945v5.397h20c.085 0 .126.064.126.19v5.97c0 .126-.04.19-.126.19h-26.392c-.086 0-.137-.01-.159-.032-.022-.022-.031-.073-.031-.159V13.945c0-.086.063-.127.19-.127h6.202c.127 0 .19.041.19.127Zm14.62 36.7 7.658 14.35c.086.085.064.168-.063.254l-5.443 2.92c-.085.042-.17.023-.253-.063l-7.722-14.35c-.04-.086 0-.168.127-.254l5.443-2.92c.085-.086.168-.064.253.063Zm9.399-33.938c.022-.022.054-.032.095-.032h23.86c.042 0 .073.01.095.032.023.022.032.054.032.095v53.59a.143.143 0 0 1-.032.095c-.022.022-.053.032-.095.032h-23.86c-.041 0-.073-.01-.095-.032-.022-.022-.032-.054-.032-.095v-53.59c0-.04.01-.073.032-.095Zm17.563 6.572h-11.076v40.636h11.076V23.28Z"/>
  </g>

</svg>
