<svg viewBox="0 0 102 81" xmlns="http://www.w3.org/2000/svg">
  <defs>
    <linearGradient x1="50%" y1="0%" x2="50%" y2="100%" id="linearGradient-1">
      <stop stop-color="#B56AEB" offset="0%"/>
      <stop stop-color="#F47CB5" offset="50.55%"/>
      <stop stop-color="#FF6A71" offset="100%"/>
    </linearGradient>
    <linearGradient x1="50%" y1="0%" x2="56.5161321%" y2="86.3423453%" id="linearGradient-2">
      <stop stop-color="#9367F9" offset="0%"/>
      <stop stop-color="#0243FE" offset="100%"/>
    </linearGradient>
    <linearGradient x1="50%" y1="0%" x2="50%" y2="100%" id="linearGradient-3">
      <stop stop-color="#5E5AF7" offset="0%"/>
      <stop stop-color="#0142FF" offset="100%"/>
    </linearGradient>
  </defs>
  <path fill="url(#linearGradient-1)"
        d="m18.032 32.163-2.417 2.596c-.576-.593-1.13-1.156-1.677-1.725-.248-.259-.478-.534-.725-.793-3.75-3.939-7.485-7.895-11.26-11.808-2.693-2.792-2.532-6.935.056-9.464C4.381 8.65 6.671 6.242 9.001 3.877c.707-.72 1.429-1.423 2.136-2.142 2.281-2.323 5.43-2.322 7.68.053 2.811 2.966 5.59 5.964 8.385 8.946 1.493 1.591 2.993 3.177 4.487 4.766.864.919.86 1.94-.017 2.833a5431.01 5431.01 0 0 1-7.395 7.517c-.5.508-1.018.998-1.413 1.385-.696-.654-1.4-1.26-2.04-1.93-1.767-1.846-3.51-3.718-5.259-5.582-2.006-2.138-4-4.286-6.016-6.413-1.175-1.24-2.95-1.401-4.295-.437-1.715 1.23-1.954 3.682-.509 5.29.425.473.874.922 1.313 1.382 3.427 3.595 6.856 7.187 10.28 10.784.581.611 1.147 1.239 1.694 1.832v.002Z"
        transform="translate(49.922 .533)"/>
  <path fill="url(#linearGradient-2)"
        d="M10.778 38.771c-.762.852-1.565 1.513-2.453 2.505-.318-.4-.472-.56-.74-.836-1.933-2.002-3.875-3.995-5.816-5.99-3.025-3.11-6.051-6.22-9.077-9.328-1.93-1.984-3.853-3.973-5.79-5.95-1.109-1.132-1.865-2.42-1.974-4.04-.119-1.76.38-3.323 1.629-4.551a687.79 687.79 0 0 1 9.582-9.242c1.873-1.774 4.926-1.784 6.764-.036 1.435 1.363 2.79 2.812 4.167 4.211-.74.762-1.443 1.507-2.17 2.228-1.245 1.233-2.546 2.412-3.748 3.684-1.745 1.848-2 4.782-.711 7.162.045.083.092.166.078.304-.255-.255-.514-.507-.767-.766-1.837-1.89-3.658-3.796-5.515-5.667-1.523-1.534-3.907-1.282-5.104.5-.807 1.2-.646 2.912.386 3.976 1.983 2.044 3.973 4.084 5.961 6.124 3.189 3.27 6.379 6.54 9.567 9.811 1.863 1.912 3.722 3.826 5.582 5.74.078.08.15.164.147.161h.002Z"
        transform="translate(49.922 .533)"/>
  <path fill="url(#linearGradient-3)"
        d="M-15.673 17.924c-.123-.116-.25-.229-.367-.349-1.438-1.471-2.867-2.952-4.314-4.414-1.16-1.172-2.853-1.427-4.218-.666-1.904 1.06-2.321 3.754-.777 5.295 4.358 4.348 8.736 8.676 13.108 13.01 2.099 2.081 4.207 4.152 6.3 6.24.577.575 1.115 1.191 1.63 1.745l-2.389 2.49c-.109-.098-.241-.209-.362-.33-2.819-2.792-5.637-5.586-8.455-8.38l-7.376-7.31c-1.775-1.758-3.554-3.511-5.324-5.275-2.62-2.612-2.614-6.505.017-9.103a4037.71 4037.71 0 0 1 7.681-7.56 170.59 170.59 0 0 1 1.936-1.871c1.921-1.829 5.008-1.952 7-.203 1.076.944 2.04 2.018 3.072 3.05-.485.505-.93.996-1.403 1.458-1.67 1.63-3.38 3.22-5.018 4.885-1.731 1.76-2.073 4.585-.914 6.828.072.141.15.279.225.418l-.054.044.002-.002Z"
        transform="translate(49.922 .533)"/>
  <g fill="#1B1464" transform="translate(0 60)">
    <path d="M18.337 1.37c.029 0 .043.022.043.066v2.066c0 .043-.014.065-.043.065l-7.458.002a27.392 27.392 0 0 1-.556 4.658h8.98c.03 0 .044.021.044.065v2.066c0 .044-.014.066-.043.066h-6.555v7.604h4.878v-2.352c0-.044.014-.066.043-.066h2.063c.043 0 .065.022.065.066v4.484c0 .014-.003.025-.011.033-.007.007-.025.01-.054.01h-9.11a.09.09 0 0 1-.044-.01c-.014-.008-.021-.02-.021-.033l-.001-9.736h-.815a19.716 19.716 0 0 1-1.247 3.022c-1.59 3.084-4.047 5.6-7.37 7.549-.03.014-.059 0-.086-.044L.007 19.149c-.014-.03-.007-.059.022-.088 3.022-1.773 5.224-4.008 6.607-6.703.315-.613.594-1.257.836-1.933H.308c-.03 0-.043-.023-.043-.067V8.292c0-.044.014-.066.043-.066l7.804.001c.328-1.436.52-2.988.579-4.659H1.275c-.03 0-.043-.023-.043-.066V1.436c0-.044.014-.066.043-.066h17.062Z"/>
    <path d="M43.134.952c.043 0 .065.015.065.044v2.022c0 .044-.022.066-.065.066H30.821v6.395c0 4.102-.544 7.765-1.633 10.988-.029.03-.05.036-.064.022l-1.934-.615c-.03-.03-.036-.058-.022-.088 1.003-2.989 1.504-6.425 1.504-10.307V.996c0-.014.004-.025.011-.033.008-.007.025-.01.054-.01h14.397ZM25.471 11.347l2.02.44c.029 0 .043.022.043.066a98.31 98.31 0 0 1-1.086 4.285 57.568 57.568 0 0 1-1.321 4.153c-.03.044-.058.059-.086.044l-1.913-.703c-.042-.03-.05-.06-.021-.088a60.73 60.73 0 0 0 2.3-8.131c.028-.044.049-.066.064-.066Zm12.764.462c.043 0 .064.022.064.065v1.67h4.362c.03 0 .043.015.043.045v1.978c0 .043-.014.065-.043.065H38.3v2.461h5.028c.03 0 .043.015.043.045v1.978c0 .03-.014.044-.043.044H31.23c-.043 0-.065-.015-.065-.044v-1.978c0-.03.022-.044.065-.044h4.92v-2.462h-4.276c-.029 0-.043-.022-.043-.065v-1.978c0-.03.014-.044.043-.044h4.276v-1.67c0-.044.022-.066.065-.066h2.02Zm.129-8.11c.043 0 .064.015.064.044v1.45h4.126c.029 0 .043.023.043.067v1.977c0 .03-.014.044-.043.044h-4.126v1.977l4.62.001c.043 0 .065.022.065.066v1.978c0 .03-.022.044-.065.044H31.616c-.029 0-.043-.014-.043-.044V9.325c0-.044.014-.066.043-.066h4.663V7.28h-4.211c-.03 0-.043-.014-.043-.044V5.26c0-.044.014-.066.043-.066h4.21l.001-1.45c0-.03.014-.045.043-.045h2.042ZM25.492 5.765l1.698 4.022c.014.03.007.058-.022.088l-1.848.79c-.029.03-.057.023-.086-.021l-1.719-4c-.014-.03 0-.058.043-.088l1.848-.813c.03-.014.057-.008.086.022Zm0-5.626 1.698 4c.014.03.007.058-.022.088l-1.848.813c-.029.014-.057.008-.086-.022L23.515.996c-.014-.03 0-.058.043-.088l1.848-.79c.03-.03.057-.023.086.021Z"/>
    <path d="M66.726 14.116h4.77V8.688h-4.77v5.428ZM78.2 1.117c.014.008.021.019.021.033v19.185c0 .03-.007.048-.021.055a.09.09 0 0 1-.043.011h-4.17c-.028 0-.042-.022-.042-.066V18.27c0-.044.014-.066.043-.066h2.041V3.282H65.76c-.03 0-.043-.015-.043-.044V1.15c0-.03.014-.044.043-.044h12.399a.09.09 0 0 1 .043.011ZM64.609 6.545a.047.047 0 0 1 .032-.01h8.94c.014 0 .024.003.032.01.007.008.01.019.01.033v9.626c0 .03-.003.047-.01.055-.008.007-.018.01-.032.01h-8.94a.047.047 0 0 1-.032-.01c-.007-.008-.01-.026-.01-.055V6.578c0-.014.003-.025.01-.033ZM63.116.03l1.482 3.604c.014.03.008.059-.021.088l-1.934.791c-.029.03-.05.022-.064-.022L61.096.886c-.014-.03-.008-.051.021-.066l1.934-.813c.014-.014.036-.007.065.022Zm-.924 5.055v15.361c0 .044-.022.066-.065.066h-2.063c-.043 0-.064-.022-.064-.066V5.084c0-.03.021-.044.064-.044h2.063c.043 0 .065.014.065.044Z"/>
    <circle cx="52" cy="11" r="2"/>
    <path d="M96.026 17.83h3.76V3.765h-3.76V17.83ZM93.824 1.49c.007-.007.018-.01.032-.01h8.101c.014 0 .025.003.032.01.008.008.011.02.011.034v18.548a.05.05 0 0 1-.01.033c-.008.007-.019.01-.033.01h-8.101c-.014 0-.025-.003-.032-.01-.008-.008-.011-.02-.011-.033V1.524c0-.015.003-.026.01-.033Zm-8.22-1c.043 0 .065.015.065.045v1.868h6.79c.03 0 .043.022.043.066v2.065c0 .044-.014.066-.043.066h-3.396v4.373h3.46c.03 0 .044.015.044.045v2.087c0 .03-.014.044-.043.044h-3.52c-.13 1.606-.468 3.082-1.014 4.428-.717 1.766-1.905 3.44-3.567 5.022-.03.03-.057.036-.086.022l-1.462-1.582c-.014-.015-.007-.044.022-.088 1.461-1.377 2.485-2.788 3.073-4.23.428-1.052.7-2.242.816-3.57l-3.782-.002c-.029 0-.043-.014-.043-.044V9.018c0-.03.014-.044.043-.044l3.846-.001V4.6H83.5c-.03 0-.047-.003-.054-.01-.008-.008-.01-.026-.01-.056v-4c0-.029.02-.043.064-.043h2.105Zm5.029 12.747 2.6 4.967c.029.03.021.058-.022.088l-1.848 1.01c-.029.015-.058.008-.086-.022l-2.621-4.966c-.014-.03 0-.058.043-.088l1.848-1.011c.029-.03.057-.022.086.022Z"/>
  </g>
</svg>


