<svg viewBox="0 0 1024 1024" xmlns="http://www.w3.org/2000/svg">
  <defs>
    <linearGradient x1="50%" y1="0%" x2="50%" y2="100%" id="linearGradient-1">
      <stop stop-color="#5F5AF7" offset="0%"/>
      <stop stop-color="#0243FF" offset="100%"/>
    </linearGradient>
    <linearGradient x1="50%" y1="0%" x2="50%" y2="100%" id="linearGradient-2">
      <stop stop-color="#9267F9" offset="0%"/>
      <stop stop-color="#0243FE" offset="100%"/>
    </linearGradient>
    <linearGradient x1="50%" y1="0%" x2="50%" y2="100%" id="linearGradient-3">
      <stop stop-color="#B66AEA" offset="0%"/>
      <stop stop-color="#FF6A71" offset="100%"/>
    </linearGradient>
  </defs>
  <path fill="url(#linearGradient-1)"
      d="m265.2 500.3-5.3-5c-21-21.4-41.8-43-62.8-64.1a51 51 0 0 0-61.5-9.7 49.2 49.2 0 0 0-11.3 76.8c63.5 63.1 127.2 126 191 188.9 30.5 30.1 61.2 60.2 91.6 90.5 8.4 8.3 16.3 17.3 23.8 25.3l-34.8 36.2c-1.6-1.5-3.5-3-5.3-4.8L267.5 712.8a381553.5 381553.5 0 0 0-107.4-106.1c-25.9-25.5-51.8-51-77.5-76.6a90.4 90.4 0 0 1 .2-132c37.2-36.8 74.5-73.3 111.9-109.9a2441.2 2441.2 0 0 1 28.2-27 76.5 76.5 0 0 1 101.9-3c15.6 13.7 29.7 29.3 44.7 44.3-7 7.3-13.5 14.5-20.4 21.2-24.3 23.6-49.2 46.7-73 70.8a86.1 86.1 0 0 0-13.4 99.1l3.3 6-.8.7Z"/>
  <path fill="url(#linearGradient-2)"
      d="M640 803.6c-11 12.4-22.6 22-35.4 36.4a132 132 0 0 0-10.7-12.2l-84-87a1178750 1178750 0 0 0-131.2-135.6c-27.8-28.9-55.7-57.8-83.6-86.5-16-16.5-27-35.2-28.6-58.7a81.5 81.5 0 0 1 23.6-66.2c45.7-45.2 91.9-90 138.4-134.3 27-25.8 71.2-26 97.8-.6 20.7 19.9 40.3 41 60.2 61.3-10.7 11-20.9 21.9-31.4 32.3-18 18-36.8 35.1-54.1 53.6-25.3 26.9-29 69.5-10.3 104 .6 1.3 1.3 2.5 1.1 4.5l-11-11.1c-26.6-27.5-53-55.2-79.8-82.4a47.2 47.2 0 0 0-68.2 65c28.7 29.8 57.5 59.4 86.2 89l138.3 142.8 80.7 83.4 2.1 2.4Z"/>
  <path fill="url(#linearGradient-3)"
      d="m758.6 701.1-35.8 37.2-25-24.7c-3.6-3.7-7-7.7-10.7-11.4C631.4 645.8 576.1 589 520 533a93 93 0 0 1 .8-135.6C556 364 590 329.5 624.6 295.6l31.7-30.7c33.9-33.3 80.6-33.3 114 .7 41.7 42.6 83 85.5 124.5 128.3l66.6 68.3c12.8 13.2 12.7 27.8-.3 40.6a79229.2 79229.2 0 0 1-109.8 107.8c-7.4 7.3-15 14.3-21 19.9-10.3-9.4-20.7-18-30.2-27.7-26.2-26.5-52.1-53.3-78-80-29.8-30.7-59.4-61.5-89.4-92a49.9 49.9 0 0 0-71.3 69.6c6.3 6.8 13 13.2 19.5 19.8l152.6 154.6c8.6 8.8 17 17.8 25.1 26.3Z"/>
</svg>
