<svg viewBox="0 0 32 32" xmlns="http://www.w3.org/2000/svg">
  <path d="M25 24a2 2 0 1 1 0 4 2 2 0 0 1 0-4ZM20.962 5v2H15a1 1 0 0 0-1 1v4.461a4.34 4.34 0 0 1-.82 2.54L21 15v2h-7.82a4.34 4.34 0 0 1 .82 2.539V25a1 1 0 0 0 1 1h5.962v2H15a3 3 0 0 1-3-3v-5.461c0-.684-.3-1.334-.82-1.779a2.316 2.316 0 0 1-.583-.759H8.829A3.001 3.001 0 0 1 3 16a3 3 0 0 1 5.83-1h1.766a2.29 2.29 0 0 1 .585-.76A2.34 2.34 0 0 0 12 12.461V8a3 3 0 0 1 3-3h5.962ZM25 14a2 2 0 1 1 0 4 2 2 0 0 1 0-4ZM6 15a1 1 0 1 0 0 2 1 1 0 0 0 0-2ZM25 4a2 2 0 1 1 0 4 2 2 0 0 1 0-4Z"/>
</svg>
