<svg xmlns="http://www.w3.org/2000/svg" width="16" height="16">
  <g fill="#2D364D" fill-rule="evenodd">
    <path fill-rule="nonzero" d="M8.122 0a7.645 7.645 0 0 1 7.645 7.645c0 4.222-3.423 7.61-7.645 7.61h-.171c-.497.003-1.964.01-3.495.013l-.575.001-.57.001H1.732a55.131 55.131 0 0 1-1.544-.015c-.968-.05 2.12-2.623 1.838-2.995a7.61 7.61 0 0 1-1.55-4.615A7.645 7.645 0 0 1 8.122 0Zm0 1.5a6.145 6.145 0 0 0-4.9 9.854c.473.623.4 1.202.135 1.757-.096.201-.22.39-.382.6l-.046.06h.392l.531-.002h.278l1.968-.006h.261c.422-.003.964-.005 1.335-.006h.218l.045-.001h.165c3.403 0 6.145-2.726 6.145-6.111A6.145 6.145 0 0 0 8.122 1.5Z"/>
    <path d="M8 5.25a.75.75 0 0 1 .75.75v1h1a.75.75 0 1 1 0 1.5h-1v1a.75.75 0 0 1-1.5 0v-1h-1a.75.75 0 0 1 0-1.5h1V6A.75.75 0 0 1 8 5.25Z"/>
  </g>
</svg>