<svg viewBox="0 0 18 18" xmlns="http://www.w3.org/2000/svg">
  <g stroke-linecap="round" stroke-linejoin="round" stroke-width="2" stroke="currentColor">
    <path d="M7 4h8"/>
    <path d="M7 9h8"/>
    <path d="M7 14h8"/>
  </g>
  <path stroke-linecap="round" stroke-linejoin="round" stroke="currentColor" d="M2.5 5.5h2"/>
  <path d="M3.5 6a.5.5 0 0 1-.5-.5V3.085l-.276.138A.5.5 0 0 1 2.053 3c-.124-.247-.023-.324.224-.447l1-.5A.5.5 0 0 1 4 2.5v3a.5.5 0 0 1-.5.5Z"/>
  <g stroke-linecap="round" stroke-linejoin="round" stroke="currentColor" fill="none">
    <path d="M4.5 10.5h-2c0-.234 1.85-1.076 1.85-2.234a.959.959 0 0 0-1.85-.11"/>
    <path d="M2.5 14.846a.959.959 0 0 0 1.85-.109.7.7 0 0 0-.6-.737.688.688 0 0 0 .6-.736.959.959 0 0 0-1.85-.109"/>
  </g>
</svg>
