<svg xmlns="http://www.w3.org/2000/svg" viewBox="0 0 32 32">
  <path fill="#e74948" d="M26.5 11.8v14.59a1.43 1.43 0 0 1-1.45 1.41H7a1.43 1.43 0 0 1-1.5-1.41V5.2A1.43 1.43 0 0 1 7 3.8h12"/>
  <path fill="#fff" d="M7.68 16.66H10c1.48 0 2.7.52 2.7 2.18s-1.24 2.29-2.65 2.29H9.3v2.23H7.68Zm2.32 3.2c.78 0 1.16-.37 1.16-1s-.43-.91-1.21-.91H9.3v1.93ZM13.87 16.66h1.92c2.05 0 3.4 1 3.4 3.31a3 3 0 0 1-3.31 3.39h-2Zm1.82 5.4c1.08 0 1.85-.49 1.85-2.09s-.77-2-1.85-2h-.21v4.12ZM20.43 16.66h4.28V18H22v1.47h2.29v1.33H22v2.56h-1.57Z"/>
  <path fill="#c02728" d="M19 11.8h7.5l-7.5-8v8z"/>
</svg>
