<svg viewBox="0 0 32 32" xmlns="http://www.w3.org/2000/svg">
  <defs>
    <linearGradient x1="3.6%" y1="-12%" x2="111%" y2="115%" id="linearGradient">
      <stop stop-color="#36b7f9" offset="0%"/>
      <stop stop-color="#9572ff" offset="57%"/>
      <stop stop-color="#ff5868" offset="100%"/>
    </linearGradient>
  </defs>
  <path
      d="M23.826 20c.076 0 .141.047.167.115l.012.054a3 3 0 0 0 2.62 2.808l.18.017a.21.21 0 0 1 .195.208v.596c0 .092-.06.17-.143.198l-.052.01a3 3 0 0 0-2.786 2.655l-.015.18a.167.167 0 0 1-.167.159h-.662a.18.18 0 0 1-.168-.116l-.012-.054a3.001 3.001 0 0 0-2.555-2.798l-.176-.02a.29.29 0 0 1-.264-.289v-.444c0-.13.085-.24.204-.278l.062-.013a3.001 3.001 0 0 0 2.717-2.665l.014-.178a.152.152 0 0 1 .151-.145h.678Zm-.608-14.707 3.535 3.535a1 1 0 0 1-.002 1.417L11.195 25.709a1 1 0 0 1-.705.291H7.01a1 1 0 0 1-1-1v-3.444a1 1 0 0 1 .292-.705l15.5-15.557a1 1 0 0 1 1.416-.001Zm-3.333 4.757L8.01 21.969v2.03h2.067l11.914-11.843-2.106-2.106ZM9.107 6c.068 0 .128.04.156.098l.014.047c.204 1.247 1.025 2.153 2.205 2.39l.19.031a.193.193 0 0 1 .167.192v.475a.205.205 0 0 1-.112.183l-.055.018c-1.16.217-1.987.947-2.338 2.203l-.057.227a.173.173 0 0 1-.17.136H8.59a.178.178 0 0 1-.159-.098l-.016-.048C8.217 10.767 7.384 9.88 6.277 9.5l-.198-.062a.31.31 0 0 1-.226-.298v-.29c0-.115.065-.217.164-.266l.063-.023c1.244-.294 2.15-1.206 2.315-2.268l.02-.169A.135.135 0 0 1 8.55 6h.557Zm13.404 1.415-1.214 1.218 2.112 2.112 1.22-1.211-2.118-2.119Z"
      fill="url(#linearGradient)"
  />
</svg>
