<svg viewBox="0 0 20 20" xmlns="http://www.w3.org/2000/svg">
  <path d="m14.51 3.308 2.21 2.21a.625.625 0 0 1 0 .885l-9.723 9.665a.625.625 0 0 1-.441.182H4.381a.625.625 0 0 1-.625-.625v-2.152c0-.166.066-.324.183-.441l9.687-9.723a.625.625 0 0 1 .885 0Zm-2.083 2.973-7.421 7.45V15h1.292l7.445-7.403-1.316-1.316Zm1.642-1.647-.759.761 1.32 1.321.763-.758-1.324-1.324Z"/>
  <path d="M5.798 3.84c.134.821.696 1.405 1.497 1.514a.12.12 0 0 1 .104.12v.297a.128.128 0 0 1-.104.125c-.767.144-1.302.647-1.497 1.52a.108.108 0 0 1-.106.084h-.324a.111.111 0 0 1-.11-.091c-.13-.72-.705-1.3-1.459-1.51a.193.193 0 0 1-.141-.186V5.53c0-.086.059-.16.142-.18.819-.194 1.403-.815 1.46-1.523a.084.084 0 0 1 .084-.078h.348c.053 0 .098.038.106.09Z"/>
  <path d="M15.003 12.605a1.875 1.875 0 0 0 1.75 1.766.13.13 0 0 1 .122.13v.373a.13.13 0 0 1-.122.13 1.875 1.875 0 0 0-1.75 1.772.104.104 0 0 1-.105.099h-.413a.113.113 0 0 1-.113-.106 1.875 1.875 0 0 0-1.707-1.762.18.18 0 0 1-.165-.18v-.278c0-.094.072-.173.166-.181a1.875 1.875 0 0 0 1.707-1.777.095.095 0 0 1 .095-.091h.423c.06 0 .109.046.112.105Z"/>
</svg>
