<svg viewBox="0 0 32 32" xmlns="http://www.w3.org/2000/svg">
  <path d="M17.933 23.033a.467.467 0 0 0 .392.531l2.173.328c-2.819 1.546-6.353 1.616-9.303-.151-3.28-1.967-4.914-5.64-4.459-9.21L5.02 13.5c-.91 4.524 1.037 9.338 5.215 11.843 3.615 2.167 7.964 2.041 11.379.068l-.327 2.165a.467.467 0 0 0 .393.53l.924.14a.466.466 0 0 0 .532-.392l.735-4.873a.467.467 0 0 0-.394-.532l-4.872-.734a.467.467 0 0 0-.531.392l-.14.925Zm9.046-5.085-1.716-1.029c.456-3.57-1.178-7.244-4.458-9.21-2.951-1.77-6.489-1.698-9.306-.15l2.175.33c.255.037.43.276.391.53l-.14.924a.466.466 0 0 1-.531.393l-4.873-.735a.466.466 0 0 1-.392-.531l.733-4.873a.467.467 0 0 1 .531-.392l.925.139c.256.038.43.276.393.532l-.326 2.162c3.414-1.974 7.766-2.1 11.382.068 4.178 2.504 6.124 7.318 5.212 11.842Z"/>
</svg>
