<svg xmlns="http://www.w3.org/2000/svg" width="15" height="13"><g fill="#2D364D" fill-rule="evenodd"><path d="M14.048 6.063a.904.904 0 0 1 0 1.248L8.72 12.64a.313.313 0 0 1-.442 0l-.442-.442a.313.313 0 0 1 0-.442l4.444-4.444H3.653a.297.297 0 0 1-.297-.296v-.657c0-.164.133-.297.297-.297h8.626L7.836 1.62a.313.313 0 0 1 0-.442l.442-.442a.313.313 0 0 1 .442 0l5.328 5.328ZM1.375 12.625V.75a.312.312 0 0 0-.313-.312H.437A.312.312 0 0 0 .125.75v11.875c0 .173.14.313.312.313h.625c.173 0 .313-.14.313-.313"/></g></svg>