<svg xmlns="http://www.w3.org/2000/svg" width="14" height="12"><path fill="#6D7587" fill-rule="nonzero" d="M3.872 4.488a.188.188 0 0 1 0 .265l-.619.619a.188.188 0 0 1-.265 0L.933 3.317l-.239-.239a.313.313 0 0 1 .018-.458l.256-.22L3.013.647a.188.188 0 0 1 .265.02l.57.665a.188.188 0 0 1 .018.219l-.04.046-.762.652 5.497.001c2.486 0 4.589 2.022 4.686 4.507.102 2.625-2.058 4.868-4.686 4.868H2.937a.312.312 0 0 1-.312-.313v-.625c0-.172.14-.312.312-.312h5.624c1.919 0 3.511-1.653 3.436-3.57-.07-1.814-1.621-3.305-3.436-3.305H2.884l.988.988Z"/></svg>