<svg xmlns="http://www.w3.org/2000/svg" viewBox="0 0 28 28" fill="#6D7587">
  <g fill-rule="evenodd" transform="translate(2.1 2.8)">
    <path fill-rule="nonzero"
          d="M11.9 1.4c.773 0 1.4.642 1.4 1.434 0 .425-.18.807-.467 1.07v1.798h5.39c1.547 0 2.8 1.285 2.8 2.869v9.56c0 1.585-1.253 2.869-2.8 2.869H5.539c-1.546 0-2.8-1.284-2.8-2.868V8.57c0-1.584 1.254-2.869 2.8-2.869h5.429V3.903a1.446 1.446 0 0 1-.467-1.069c0-.792.627-1.434 1.4-1.434ZM1.867 9.8v7.683H1a1 1 0 0 1-1-1V10.8a1 1 0 0 1 1-1h.867Zm21.05.027a1 1 0 0 1 1 1v5.656a1 1 0 0 1-1 1h-.867V9.827ZM8.1 11.2H8a1 1 0 0 0-1 1v2.2a1 1 0 0 0 1 1h.1a1 1 0 0 0 1-1v-2.2a1 1 0 0 0-1-1Zm7.7 0h-.1a1 1 0 0 0-1 1v2.2a1 1 0 0 0 1 1h.1a1 1 0 0 0 1-1v-2.2a1 1 0 0 0-1-1Z"/>
    <circle cx="11.9" cy="2.1" r="2.1"/>
  </g>
</svg>
