<svg viewBox="0 0 20 20" xmlns="http://www.w3.org/2000/svg">
  <path d="M10.727 3v.737h5.091V5.21h-5.09v10.315h2.908V17H6.364v-1.474h2.909V5.211H4.182V3.737h5.09V3h1.455ZM4.91 6.2l2.057 2.084c.527.534.852 1.27.852 2.084 0 1.628-1.302 2.948-2.909 2.948-1.607 0-2.909-1.32-2.909-2.948 0-.813.326-1.55.852-2.084L4.91 6.2Zm10.182 0 2.057 2.084c.526.534.852 1.27.852 2.084 0 1.628-1.302 2.948-2.91 2.948-1.606 0-2.908-1.32-2.908-2.948 0-.813.325-1.55.852-2.084L15.09 6.2Zm0 2.084-1.029 1.042a1.474 1.474 0 0 0-.426 1.042l2.91.001c0-.398-.155-.767-.427-1.043l-1.028-1.042Zm-10.182 0L3.881 9.326a1.474 1.474 0 0 0-.426 1.042l2.909.001c0-.398-.154-.767-.426-1.043L4.909 8.284Z"/>
</svg>
