<svg xmlns="http://www.w3.org/2000/svg" width="20" height="20">
  <path fill="#6D7587" fill-rule="nonzero" d="M12.851 5.174a.577.577 0 0 1 .771-.05l.055.05 1.653 1.68a.602.602 0 0 1 .024.813.577.577 0 0 1-.796.077l-.055-.049-.655-.666v7.377a.59.59 0 0 1-.55.592.587.587 0 0 1-.614-.523l-.004-.07V7.03l-.655.666a.577.577 0 0 1-.801.028.601.601 0 0 1-.074-.812l.048-.056 1.653-1.68Zm-2.508 8.638c.309 0 .564.245.582.559a.591.591 0 0 1-.514.625l-.068.004H5.084a.589.589 0 0 1-.582-.56.591.591 0 0 1 .514-.624l.068-.004h5.259Zm0-4.16a.59.59 0 0 1 .584.594.59.59 0 0 1-.584.594H5.084a.59.59 0 0 1-.584-.594.59.59 0 0 1 .584-.594h5.259Zm-1.169-4.16a.59.59 0 0 1 .584.595.59.59 0 0 1-.584.594h-4.09a.59.59 0 0 1-.584-.594.59.59 0 0 1 .584-.595h4.09Z"/>
</svg>