<svg xmlns="http://www.w3.org/2000/svg" width="20" height="20">
  <path fill="#6D7587" fill-rule="nonzero" d="M13.263 5a.59.59 0 0 1 .584.594v7.377l.655-.666a.578.578 0 0 1 .565-.154.59.59 0 0 1 .413.42.601.601 0 0 1-.151.574l-1.653 1.681a.577.577 0 0 1-.826 0l-1.652-1.68a.601.601 0 0 1-.16-.578.59.59 0 0 1 .418-.425.578.578 0 0 1 .568.162l.655.666V5.594A.59.59 0 0 1 13.263 5Zm-4.09 8.32c.31 0 .565.245.583.559a.591.591 0 0 1-.514.625l-.068.004h-4.09a.589.589 0 0 1-.582-.56.591.591 0 0 1 .514-.624l.068-.004h4.09Zm1.17-4.16c.308 0 .564.245.582.56a.591.591 0 0 1-.515.624l-.068.004H5.084a.589.589 0 0 1-.582-.56.591.591 0 0 1 .514-.624l.068-.004h5.258Zm0-4.16a.59.59 0 0 1 .583.594.59.59 0 0 1-.584.595H5.084a.59.59 0 0 1-.584-.595A.59.59 0 0 1 5.084 5h5.258Z"/>
</svg>