<svg xmlns="http://www.w3.org/2000/svg" width="16" height="16">
  <path fill-rule="nonzero" d="M6.864 4.135c.49 0 .961.193 1.308.539l3.998 3.98a1.835 1.835 0 0 1 0 2.603l-2.616 2.604a1.855 1.855 0 0 1-2.615 0l-3.998-3.98A1.837 1.837 0 0 1 2.4 8.58V5.67c0-.847.69-1.534 1.541-1.534h2.923Zm0 1.227H3.941a.308.308 0 0 0-.308.307v2.91c0 .163.064.319.18.434l3.998 3.98c.24.24.63.24.871 0l2.616-2.604a.612.612 0 0 0 0-.867L7.3 5.542a.618.618 0 0 0-.436-.18M5.195 6.918a.928.928 0 0 1 1.547.413.918.918 0 0 1-.24.89.928.928 0 0 1-1.546-.414.918.918 0 0 1 .24-.89M7.735 2.4c.49 0 .96.194 1.308.539l4.433 4.414c.234.24.23.624-.008.86a.618.618 0 0 1-.864.008L8.172 3.805a.618.618 0 0 0-.436-.178H4.868a.615.615 0 0 1-.616-.613c0-.34.276-.614.616-.614h2.868Z"/>
</svg>