<svg viewBox="0 0 32 32" xmlns="http://www.w3.org/2000/svg" fill="#2D364D">
  <path
    d="M25 4a2 2 0 0 1 2 2v10a2 2 0 0 1-2 2h-3.026v.058l-.357.3c-1.224 1.027-2.194 2.186-2.917 3.478-.111.2-.216.4-.315.605-.234.482-.44.986-.675 1.641-.145.405-.733 2.136-.886 2.573-.123.349-.428.886-.817 1.325-.566.638-1.268 1.05-2.091 1.097l-.192.004-.196-.009c-1.424-.113-2.376-1.045-2.736-2.571l-.027-.113v-.117c0-1.568.19-3.1.571-4.592.214-.836.453-1.63.717-2.383l.082-.221-6.987-.004c-1.09-.093-1.768-.823-1.833-1.898L3.31 17c0-.448.402-2.021.85-3.6l.17-.59c.426-1.465.853-2.813.989-3.123.046-.106.093-.219.143-.346.087-.219.436-1.149.516-1.356.257-.666.519-1.293.843-2.007.527-1.16 1.462-1.85 2.797-1.978H25ZM13.686 27.078c.512.041 1.08-.6 1.25-1.085.064-.18.208-.603.365-1.061l.158-.462c.157-.458.303-.882.369-1.064.258-.717.49-1.285.758-1.838.116-.24.238-.473.368-.707a14.235 14.235 0 0 1 2.697-3.431l.323-.294V6L9.716 5.995c-.468.047-.777.248-1.007.675l-.067.135c-.308.677-.554 1.27-.798 1.9-.073.19-.428 1.134-.524 1.376-.058.146-.113.28-.169.407-.09.208-.501 1.526-.911 2.926l-.163.563C5.672 15.38 5.31 16.73 5.31 17a.29.29 0 0 1-.004.054l-.007.022 9.84-.001-.616 1.402a23.882 23.882 0 0 0-1.249 3.696 16.43 16.43 0 0 0-.501 3.574l-.008.512.003-.108.012.05c.16.557.4.8.795.864l.111.013ZM21.974 6v10H25V6h-3.026Z"/>
</svg>
