<svg viewBox="0 0 32 32" xmlns="http://www.w3.org/2000/svg" fill="#2D364D">
  <path fill-rule="nonzero"
        d="M17 4a2 2 0 0 1 2 2v7h7a2 2 0 0 1 2 2v10a2 2 0 0 1-2 2H14a2 2 0 0 1-2-2v-7H6a2 2 0 0 1-2-2V6a2 2 0 0 1 2-2h11ZM6.032 21v3a1 1 0 0 0 1 1H10v2H7.032a3 3 0 0 1-3-3v-3h2ZM26 15h-7v1a2 2 0 0 1-2 2h-3v7h12V15Zm-4.79 2.5 2.04 5.552h-1.504l-.424-1.264h-2.168l-.432 1.264H17.25l2.056-5.552h1.904Zm-.912 1.224h-.096l-.656 1.912h1.392l-.64-1.912ZM17 6H6v10h11V6Zm-6.054 1.5 1.144.04v1.208h2.584v3.888H12.09v2.144h-1.144v-2.144H8.33V8.748h2.616V7.5Zm0 2.376h-1.48v1.648h1.48V9.876Zm2.592 0H12.09v1.648h1.448V9.876ZM25 5a3 3 0 0 1 3 3v3h-2V8a1 1 0 0 0-1-1h-3.968V5H25Z"/>
</svg>
