<svg viewBox="0 0 32 32" xmlns="http://www.w3.org/2000/svg">
  <path d="M12 7.5v6a.5.5 0 0 1-.5.5h-6a.5.5 0 0 1-.5-.5v-6a.5.5 0 0 1 .5-.5h6a.5.5 0 0 1 .5.5ZM10 9H7v3h3V9Zm2 9.5v6a.5.5 0 0 1-.5.5h-6a.5.5 0 0 1-.5-.5v-6a.5.5 0 0 1 .5-.5h6a.5.5 0 0 1 .5.5ZM10 20H7v3h3v-3Zm4.289-10.964h12.456c.15 0 .272-.112.272-.25v-1.5c0-.139-.122-.25-.272-.25H14.289c-.15 0-.272.111-.272.25v1.5c0 .138.122.25.272.25Zm0 11h12.456c.15 0 .272-.112.272-.25v-1.5c0-.139-.122-.25-.272-.25H14.289c-.15 0-.272.111-.272.25v1.5c0 .138.122.25.272.25Zm-.126-6h6.707c.081 0 .147-.112.147-.25v-1.5c0-.139-.066-.25-.147-.25h-6.707c-.08 0-.146.111-.146.25v1.5c0 .138.065.25.146.25Zm0 11h6.707c.081 0 .147-.112.147-.25v-1.5c0-.139-.066-.25-.147-.25h-6.707c-.08 0-.146.111-.146.25v1.5c0 .138.065.25.146.25Z"/>
</svg>
