<svg xmlns="http://www.w3.org/2000/svg" width="14" height="14">
    <path fill="#6D7587" fill-rule="nonzero" d="M4.364 13.893a1.711 1.711 0 0 1-1.62-.234 1.818 1.818 0 0 1-.724-1.508l.072-2.737a.612.612 0 0 0-.119-.38L.357 6.844a1.842 1.842 0 0 1-.27-1.648A1.775 1.775 0 0 1 1.25 4.03l2.52-.774a.585.585 0 0 0 .317-.24L5.55.793C5.875.297 6.419 0 7 0s1.125.297 1.45.792l1.464 2.225c.075.115.187.2.316.239l2.52.774c.55.17.985.605 1.164 1.166a1.842 1.842 0 0 1-.27 1.647l-1.617 2.191a.612.612 0 0 0-.118.38l.071 2.737a1.818 1.818 0 0 1-.724 1.508 1.711 1.711 0 0 1-1.62.234l-2.438-.903a.569.569 0 0 0-.396 0l-2.438.903ZM7.169 11.5l2.535.973a.51.51 0 0 0 .493-.072.57.57 0 0 0 .221-.469l-.075-2.935a.579.579 0 0 1 .106-.35l1.668-2.338a.583.583 0 0 0 .08-.51.545.545 0 0 0-.352-.362l-2.604-.828a.535.535 0 0 1-.289-.225L7.43 1.985a.526.526 0 0 0-.442-.249.526.526 0 0 0-.443.249L5.021 4.383a.535.535 0 0 1-.288.225l-2.605.828a.546.546 0 0 0-.352.361.583.583 0 0 0 .08.51l1.667 2.338c.072.101.11.225.106.351l-.074 2.935a.57.57 0 0 0 .22.469.51.51 0 0 0 .494.071l2.534-.972a.51.51 0 0 1 .366 0Z"/>
</svg>