<svg xmlns="http://www.w3.org/2000/svg" xmlns:xlink="http://www.w3.org/1999/xlink" viewBox="0 0 30 30">
  <defs>
    <linearGradient id="a" x1="50%" x2="48.3%" y1="0%" y2="109.18%">
      <stop offset="0%" stop-color="#8E5FFF"/>
      <stop offset="100%" stop-color="#F2EDFE"/>
    </linearGradient>
    <linearGradient id="d" x1="50%" x2="50%" y1="0%" y2="100%">
      <stop offset="0%" stop-color="#FFF"/>
      <stop offset="100%" stop-color="#F9EFFF" stop-opacity=".95"/>
    </linearGradient>
    <filter id="b" width="141.7%" height="147.6%" x="-20.8%" y="-19%" filterUnits="objectBoundingBox">
      <feOffset dy="1" in="SourceAlpha" result="shadowOffsetOuter1"/>
      <feGaussianBlur in="shadowOffsetOuter1" result="shadowBlurOuter1" stdDeviation="1.5"/>
      <feColorMatrix in="shadowBlurOuter1" values="0 0 0 0 0.682352941 0 0 0 0 0.552941176 0 0 0 0 0.996078431 0 0 0 1 0"/>
    </filter>
    <path id="c" d="M24 21H0v-3.67c0-.23.18-.4.4-.4h1.72V1.04C2.12.47 2.6 0 3.18 0H13.8c.59 0 1.06.47 1.06 1.05V15.8h2.13V6.23h4.06c.59 0 1.06.47 1.06 1.05v9.64h1.5c.22 0 .4.18.4.4V21Z"/>
  </defs>
  <g fill="none" fill-rule="evenodd">
    <rect width="30" height="30" fill="url(#a)" rx="4"/>
    <g transform="translate(3 5)">
      <use xlink:href="#c" fill="#000" filter="url(#b)"/>
      <use xlink:href="#c" fill="url(#d)"/>
    </g>
    <path fill="#A37DFE" d="M8 8v2h2V8zM8 12v2h2v-2zM8 16v2h2v-2zM13 8v2h2V8zM13 12v2h2v-2zM13 16v2h2v-2zM8 20v2h2v-2zM13 20v2h2v-2z"/>
    <g transform="translate(12 11)">
      <path fill="#7250E1" d="M3.32 3.32a4.69 4.69 0 0 1 7.07 6.12l.98.98.24-.24a.33.33 0 0 1 .47 0l3.32 3.32c.13.13.13.34 0 .47l-1.43 1.43a.33.33 0 0 1-.47 0l-3.32-3.32a.33.33 0 0 1 0-.47l.24-.24-.98-.98a4.69 4.69 0 0 1-6.12-7.07ZM4.5 4.5a3.01 3.01 0 1 0 4.26 4.26A3.01 3.01 0 0 0 4.5 4.5Z"/>
      <circle cx="6.66" cy="6.66" r="3.01" fill="#FFF" fill-opacity=".6"/>
    </g>
  </g>
</svg>
