<svg xmlns="http://www.w3.org/2000/svg" xmlns:xlink="http://www.w3.org/1999/xlink" viewBox="0 0 48 48">
  <defs>
    <linearGradient id="b" x1="50%" x2="48.3%" y1="0%" y2="109.18%">
      <stop offset="0%" stop-color="#8E5FFF"/>
      <stop offset="100%" stop-color="#F2EDFE"/>
    </linearGradient>
    <linearGradient id="f" x1="50%" x2="50%" y1="0%" y2="100%">
      <stop offset="0%" stop-color="#FFF"/>
      <stop offset="100%" stop-color="#F9EFFF" stop-opacity=".95"/>
    </linearGradient>
    <filter id="d" width="144.8%" height="148.1%" x="-22.4%" y="-20.4%" filterUnits="objectBoundingBox">
      <feOffset dy="1" in="SourceAlpha" result="shadowOffsetOuter1"/>
      <feGaussianBlur in="shadowOffsetOuter1" result="shadowBlurOuter1" stdDeviation="2"/>
      <feColorMatrix in="shadowBlurOuter1" values="0 0 0 0 0.682352941 0 0 0 0 0.552941176 0 0 0 0 0.996078431 0 0 0 1 0"/>
    </filter>
    <circle id="a" cx="24" cy="24" r="21"/>
    <path id="e" d="M29 27H0v-5.73c0-.28.22-.5.5-.5h2.06V1.29C2.56.58 3.14 0 3.85 0h12.82c.7 0 1.28.58 1.28 1.3v18.08h2.56V7.65h4.92c.7 0 1.28.58 1.28 1.29v11.83h1.79c.28 0 .5.22.5.5V27Z"/>
  </defs>
  <g fill="none" fill-rule="evenodd">
    <mask id="c" fill="#fff">
      <use xlink:href="#a"/>
    </mask>
    <use xlink:href="#a" fill="url(#b)"/>
    <g mask="url(#c)">
      <g transform="translate(9 11)">
        <use xlink:href="#e" fill="#000" filter="url(#d)"/>
        <use xlink:href="#e" fill="url(#f)"/>
      </g>
    </g>
    <path fill="#A37DFE" d="M14.69 14.17v3h3v-3zM14.69 19.17v3h3v-3zM14.69 24.17v3h3v-3zM20.69 14.17v3h3v-3zM20.69 19.17v3h3v-3zM20.69 24.17v3h3v-3zM14.69 29.17v3h3v-3zM20.69 29.17v3h3v-3z" mask="url(#c)"/>
    <g mask="url(#c)">
      <g transform="translate(20.56 18.56)">
        <path fill="#7250E1" d="M4.95 4.95a7 7 0 0 1 10.56 9.14l1.46 1.47.35-.36c.2-.2.52-.2.71 0l4.95 4.95c.2.2.2.51 0 .71l-2.12 2.12a.5.5 0 0 1-.7 0l-4.96-4.95a.5.5 0 0 1 0-.7l.36-.36-1.47-1.46A7 7 0 0 1 4.95 4.95Zm1.77 1.77a4.5 4.5 0 1 0 6.36 6.36 4.5 4.5 0 0 0-6.36-6.36Z"/>
        <circle cx="9.94" cy="9.94" r="4.5" fill="#FFF" fill-opacity=".6"/>
      </g>
    </g>
  </g>
</svg>
