<?xml version="1.0" encoding="UTF-8"?>
<svg width="24px" height="24px" viewBox="0 0 24 24" version="1.1" xmlns="http://www.w3.org/2000/svg" xmlns:xlink="http://www.w3.org/1999/xlink">
    <title>选取文件</title>
    <g id="页面-1" stroke="none" stroke-width="1" fill="none" fill-rule="evenodd">
        <g id="微信浏览器上传文件前置弹窗" transform="translate(-15, -688)" fill="#4A6AFF" fill-rule="nonzero">
            <g id="编组" transform="translate(0, 590)">
                <g id="编组-5" transform="translate(15, 98)">
                    <g id="选取文件" transform="translate(2.4, 2.4)">
                        <g id="文件" transform="translate(-0, -0)">
                            <path d="M17.4445714,1.46933181 C17.8395429,1.83483724 18.1540571,2.13820674 18.3881143,2.37944032 C18.6221714,2.6206739 18.8013714,2.82535694 18.9257143,2.99348943 C19.0500571,3.16162193 19.1268571,3.30416905 19.1561143,3.42113078 C19.1853714,3.53809252 19.2,3.64043404 19.2,3.72815534 L19.2,4.07904055 L15.9524571,4.07904055 C15.8061714,4.07904055 15.6781714,4.02421473 15.5684571,3.91456311 C15.4587429,3.80491148 15.3673143,3.67698458 15.2941714,3.53078241 C15.2210286,3.38458024 15.1661714,3.23472302 15.1296,3.08121074 C15.0930286,2.92769846 15.0747429,2.80708167 15.0747429,2.71936037 L15.0747429,0 L15.1405714,0 C15.2576,0 15.3782857,0.0182752713 15.5026286,0.0548258138 C15.6269714,0.0913763564 15.7696,0.160822387 15.9305143,0.263163906 C16.0914286,0.365505425 16.2925714,0.511707596 16.5339429,0.701770417 C16.7753143,0.891833238 17.0788571,1.14768704 17.4445714,1.46933181 Z M13.6923429,2.74129069 C13.6923429,3.03369503 13.7362286,3.33706453 13.824,3.6513992 C13.9117714,3.96573387 14.0507429,4.25813821 14.2409143,4.52861222 C14.4310857,4.79908624 14.6724571,5.02204455 14.9650286,5.19748715 C15.2576,5.37292975 15.6013714,5.46065106 15.9963429,5.46065106 L19.2,5.46065106 L19.2,16.4587093 C19.2,16.8826956 19.1158857,17.2628212 18.9476571,17.5990862 C18.7794286,17.9353512 18.5563429,18.2204455 18.2784,18.4543689 C18.0004571,18.6882924 17.6932571,18.8710451 17.3568,19.0026271 C17.0203429,19.134209 16.6912,19.2 16.3693714,19.2 L2.83062857,19.2 C2.55268571,19.2 2.24914286,19.1195888 1.92,18.9587664 C1.59085714,18.797944 1.28365714,18.5859509 0.9984,18.322787 C0.713142857,18.0596231 0.475428571,17.7599086 0.285257143,17.4236436 C0.0950857143,17.0873786 0,16.7364934 0,16.370988 L0,2.82901199 C0,2.52198744 0.0694857143,2.20399772 0.208457143,1.87504283 C0.347428571,1.54608795 0.5376,1.24271845 0.778971429,0.964934323 C1.02034286,0.6871502 1.29462857,0.456881782 1.60182857,0.274129069 C1.90902857,0.0913763564 2.23085714,0 2.56731429,0 L13.6923429,0 L13.6923429,2.74129069 Z M15.0747429,15.0551685 C15.4550857,15.0551685 15.7769143,14.9199315 16.0402286,14.6494575 C16.3035429,14.3789834 16.4352,14.0536836 16.4352,13.673558 C16.4352,13.2934323 16.3035429,12.9717875 16.0402286,12.7086236 C15.7769143,12.4454597 15.4550857,12.3138778 15.0747429,12.3138778 L4.10331429,12.3138778 C3.72297143,12.3138778 3.40114286,12.4454597 3.13782857,12.7086236 C2.87451429,12.9717875 2.74285714,13.2934323 2.74285714,13.673558 C2.74285714,14.0536836 2.87451429,14.3789834 3.13782857,14.6494575 C3.40114286,14.9199315 3.72297143,15.0551685 4.10331429,15.0551685 L15.0747429,15.0551685 Z M16.4352,8.21290691 C16.4352,7.83278127 16.3035429,7.50748144 16.0402286,7.23700742 C15.7769143,6.96653341 15.4550857,6.8312964 15.0747429,6.8312964 L4.10331429,6.8312964 C3.72297143,6.8312964 3.40114286,6.96653341 3.13782857,7.23700742 C2.87451429,7.50748144 2.74285714,7.83278127 2.74285714,8.21290691 C2.74285714,8.59303255 2.87451429,8.91467733 3.13782857,9.17784123 C3.40114286,9.44100514 3.72297143,9.57258709 4.10331429,9.57258709 L15.0747429,9.57258709 C15.4550857,9.57258709 15.7769143,9.44100514 16.0402286,9.17784123 C16.3035429,8.91467733 16.4352,8.59303255 16.4352,8.21290691 Z" id="形状"></path>
                        </g>
                    </g>
                </g>
            </g>
        </g>
    </g>
</svg>