<?xml version="1.0" encoding="UTF-8"?>
<svg width="24px" height="24px" viewBox="0 0 24 24" version="1.1" xmlns="http://www.w3.org/2000/svg" xmlns:xlink="http://www.w3.org/1999/xlink">
    <title>照片图库</title>
    <defs>
        <path d="M17.2,0 C18.3045695,-2.02906125e-16 19.2,0.8954305 19.2,2 L19.2,14.8 C19.2,15.9045695 18.3045695,16.8 17.2,16.8 L2,16.8 C0.8954305,16.8 6.76353751e-17,15.9045695 0,14.8 L0,2 C-1.3527075e-16,0.8954305 0.8954305,1.3527075e-16 2,0 L17.2,0 Z M13.5962842,7.83929077 C12.6544043,7.83929077 8.57823029,11.9923187 8.19017487,11.9923187 C7.84830678,11.9923187 7.31231887,11.6018303 6.75567234,11.1679542 L6.33702429,10.8398354 C5.78088978,10.4059593 5.24746195,10.0154709 4.91020203,10.0154709 C4.39469741,10.0154709 2.03868713,12.1699219 2.03868713,12.9273148 C2.03868713,14.0352837 2.9368734,14.9334699 4.04484231,14.9334699 L15.0117896,14.9334699 C16.1163591,14.9334699 17.0117896,14.0380394 17.0117896,12.9334699 L17.0117896,10.6946155 C17.0117896,10.6946155 14.5600919,7.83929077 13.5962842,7.83929077 Z M4.2,2.4 C3.20588745,2.4 2.4,3.20588745 2.4,4.2 C2.4,5.19411255 3.20588745,6 4.2,6 C5.19411255,6 6,5.19411255 6,4.2 C6,3.20588745 5.19411255,2.4 4.2,2.4 Z" id="path-1"></path>
    </defs>
    <g id="页面-1" stroke="none" stroke-width="1" fill="none" fill-rule="evenodd">
        <g id="微信浏览器上传文件前置弹窗" transform="translate(-15, -606)">
            <g id="编组" transform="translate(0, 590)">
                <g id="编组-2" transform="translate(15, 16)">
                    <g id="照片图库" transform="translate(2.4, 3.6)">
                        <g id="路径-2" transform="translate(-0, 0)">
                            <mask id="mask-2" fill="white">
                                <use xlink:href="#path-1"></use>
                            </mask>
                            <use id="形状结合" fill="#0492FE" xlink:href="#path-1"></use>
                        </g>
                    </g>
                </g>
            </g>
        </g>
    </g>
</svg>