<svg xmlns="http://www.w3.org/2000/svg" width="20" height="20">
  <g fill="none" fill-rule="evenodd">
    <path fill="#FF9925" d="M16.25 7.5v9.12a.9.9 0 0 1-.9.88H4.02a.9.9 0 0 1-.9-.88V3.38c0-.49.4-.88.9-.88h7.53"/>
    <path fill="#FFF" d="M11.2 11.67 8.8 13.29a.2.2 0 0 1-.31-.17V9.88a.2.2 0 0 1 .31-.17l2.39 1.62a.2.2 0 0 1 0 .34Z"/>
    <path fill="#C27620" d="M12.56 7.5h3.69l-4.69-5v4a1 1 0 0 0 1 1Z"/>
    <path fill="#FFF"
          d="M4.5 6H6v1.5H4.5zM4.5 8.5H6V10H4.5zM13.4 8.5h1.5V10h-1.5zM4.5 11H6v1.5H4.5zM13.4 11h1.5v1.5h-1.5zM4.5 13.5H6V15H4.5zM13.4 13.5h1.5V15h-1.5z"/>
  </g>
</svg>
