<svg viewBox="0 0 20 20" xmlns="http://www.w3.org/2000/svg" fill="#2EC965">
  <path d="M7.27 12.169a.661.661 0 0 1-.88-.269l-.043-.095-1.818-3.998a.473.473 0 0 1 0-.145.327.327 0 0 1 .335-.328.305.305 0 0 1 .196.066l2.18 1.527a.988.988 0 0 0 .546.167.894.894 0 0 0 .342-.066l10.047-4.5a10.73 10.73 0 0 0-8.171-3.526C4.478 1.002 0 4.732 0 9.37a7.83 7.83 0 0 0 3.46 6.296.662.662 0 0 1 .24.727l-.45 1.701a.945.945 0 0 0-.051.24.327.327 0 0 0 .334.334.417.417 0 0 0 .19-.058l2.18-1.265c.16-.098.343-.151.531-.152.099 0 .197.014.29.043 1.063.3 2.161.452 3.265.45 5.525 0 10.011-3.729 10.011-8.33a7.23 7.23 0 0 0-1.098-3.883L7.35 12.125l-.08.044Z"/>
</svg>
